<?xml version="1.0" encoding="UTF-8" standalone="no"?>
<!-- Created with Inkscape (http://www.inkscape.org/) -->

<svg
   width="1080"
   height="1920"
   viewBox="0 0 285.74999 508"
   version="1.1"
   id="svg5"
   xml:space="preserve"
   inkscape:version="1.2.2 (b0a8486541, 2022-12-01)"
   sodipodi:docname="Fedora Wallpaper.svg"
   xmlns:inkscape="http://www.inkscape.org/namespaces/inkscape"
   xmlns:sodipodi="http://sodipodi.sourceforge.net/DTD/sodipodi-0.dtd"
   xmlns:xlink="http://www.w3.org/1999/xlink"
   xmlns="http://www.w3.org/2000/svg"
   xmlns:svg="http://www.w3.org/2000/svg"><sodipodi:namedview
     id="namedview7"
     pagecolor="#ffffff"
     bordercolor="#000000"
     borderopacity="0.25"
     inkscape:showpageshadow="false"
     inkscape:pageopacity="0.0"
     inkscape:pagecheckerboard="true"
     inkscape:deskcolor="#d1d1d1"
     inkscape:document-units="mm"
     showgrid="false"
     showborder="false"
     inkscape:zoom="0.38534584"
     inkscape:cx="147.91907"
     inkscape:cy="1185.9477"
     inkscape:window-width="1920"
     inkscape:window-height="1011"
     inkscape:window-x="0"
     inkscape:window-y="0"
     inkscape:window-maximized="1"
     inkscape:current-layer="layer1" /><defs
     id="defs2"><linearGradient
       inkscape:collect="always"
       id="linearGradient2584"><stop
         style="stop-color:#75b4da;stop-opacity:1;"
         offset="0"
         id="stop2578" /><stop
         style="stop-color:#ebf6ff;stop-opacity:1;"
         offset="0.47431508"
         id="stop2580" /><stop
         style="stop-color:#2123e5;stop-opacity:1;"
         offset="1"
         id="stop2582" /></linearGradient><linearGradient
       inkscape:collect="always"
       id="linearGradient7695"><stop
         style="stop-color:#b2d6fd;stop-opacity:0.8313725;"
         offset="0"
         id="stop7691" /><stop
         style="stop-color:#7676ff;stop-opacity:1;"
         offset="1"
         id="stop7693" /></linearGradient><linearGradient
       inkscape:collect="always"
       id="linearGradient3247"><stop
         style="stop-color:#ff7e2f;stop-opacity:1;"
         offset="0"
         id="stop3243" /><stop
         style="stop-color:#cb595f;stop-opacity:1;"
         offset="0.47431508"
         id="stop10735" /><stop
         style="stop-color:#7030a0;stop-opacity:1;"
         offset="1"
         id="stop3245" /></linearGradient><inkscape:path-effect
       effect="powerclip"
       id="path-effect3237"
       is_visible="true"
       lpeversion="1"
       inverse="true"
       flatten="false"
       hide_clip="false"
       message="Use fill-rule evenodd on &lt;b&gt;fill and stroke&lt;/b&gt; dialog if no flatten result after convert clip to paths." /><clipPath
       clipPathUnits="userSpaceOnUse"
       id="clipPath3227"><g
         id="g3235"
         style="display:block"><path
           style="color:#000000;fill:#ffffff;fill-opacity:1;fill-rule:evenodd;stroke-linecap:round;stroke-linejoin:round;-inkscape-stroke:none;paint-order:stroke markers fill"
           d="m 650.80273,144.88867 c -7.23946,0 -13.2207,5.9832 -13.2207,13.22266 10e-6,7.23945 5.98125,13.22071 13.2207,13.2207 7.23945,0 13.22266,-5.98125 13.22266,-13.2207 10e-6,-7.23946 -5.9832,-13.22265 -13.22266,-13.22266 z"
           id="path3229"
           sodipodi:nodetypes="sssss" /><path
           style="color:#000000;fill:#ffffff;fill-opacity:1;fill-rule:evenodd;stroke-linecap:round;stroke-linejoin:round;-inkscape-stroke:none;paint-order:stroke markers fill"
           d="m 649.01367,185.5957 c -7.23946,0 -13.22266,5.98124 -13.22265,13.22071 0,7.23945 5.9832,13.22266 13.22265,13.22265 7.23945,0 13.2207,-5.9832 13.2207,-13.22265 10e-6,-7.23946 -5.98124,-13.2207 -13.2207,-13.22071 z"
           id="path3231"
           sodipodi:nodetypes="sssss" /><path
           style="color:#000000;fill:#ffffff;fill-opacity:1;fill-rule:evenodd;stroke-linecap:round;stroke-linejoin:round;-inkscape-stroke:none;paint-order:stroke markers fill"
           d="m 615.91797,163.44922 c -7.23946,-1e-5 -13.22265,5.9832 -13.22266,13.22265 0,7.23947 5.9832,13.22071 13.22266,13.22071 7.23945,-1e-5 13.22071,-5.98125 13.2207,-13.22071 0,-7.23944 -5.98125,-13.22265 -13.2207,-13.22265 z"
           id="path3233"
           sodipodi:nodetypes="sssss" /></g></clipPath><radialGradient
       inkscape:collect="always"
       xlink:href="#linearGradient2584"
       id="radialGradient3375"
       cx="7.6401968"
       cy="152.15646"
       fx="7.6401968"
       fy="152.15646"
       r="142.875"
       gradientTransform="matrix(2.2999556,3.8958181,-3.8968138,2.300543,575.35332,-379.8073)"
       gradientUnits="userSpaceOnUse" /><linearGradient
       inkscape:collect="always"
       xlink:href="#linearGradient7695"
       id="linearGradient7697"
       x1="-60.038765"
       y1="311.65381"
       x2="337.45734"
       y2="311.65381"
       gradientUnits="userSpaceOnUse"
       gradientTransform="matrix(0.79690224,0,0,1.2299446,47.970244,-70.669373)" /><radialGradient
       inkscape:collect="always"
       xlink:href="#linearGradient3247"
       id="radialGradient10747"
       gradientUnits="userSpaceOnUse"
       gradientTransform="matrix(2.2999556,3.8958181,-3.8968138,2.300543,575.35331,-379.80731)"
       cx="7.6401968"
       cy="152.15646"
       fx="7.6401968"
       fy="152.15646"
       r="142.875" /><clipPath
       clipPathUnits="userSpaceOnUse"
       id="clipPath6555"><rect
         style="display:inline;opacity:1;fill:url(#radialGradient6559);fill-opacity:1;fill-rule:evenodd;stroke:none;stroke-width:10.5833;stroke-linecap:round;stroke-linejoin:round;stroke-dasharray:none;stroke-opacity:1;paint-order:stroke markers fill"
         id="rect6557"
         width="285.75"
         height="508"
         x="-1.5695394e-05"
         y="3.88326e-06" /></clipPath><radialGradient
       inkscape:collect="always"
       xlink:href="#linearGradient2584"
       id="radialGradient6559"
       gradientUnits="userSpaceOnUse"
       gradientTransform="matrix(2.2999556,3.8958181,-3.8968138,2.300543,575.35332,-379.80729)"
       cx="7.6401968"
       cy="152.15646"
       fx="7.6401968"
       fy="152.15646"
       r="142.875" /></defs><g
     inkscape:label="Layer 1"
     inkscape:groupmode="layer"
     id="layer1"
     transform="translate(339.75402,118.38656)"><g
       inkscape:label="Layer 1"
       id="layer1-5"
       inkscape:export-filename="../../Pictures/linux-wallpapers-mobile/Fedora Wallpaper.png"
       inkscape:export-xdpi="96"
       inkscape:export-ydpi="96"
       transform="translate(-339.75402,-118.38656)"><g
         id="g10739"
         inkscape:label="background"><rect
           style="display:inline;opacity:1;fill:url(#radialGradient3375);fill-opacity:1;fill-rule:evenodd;stroke:none;stroke-width:10.5833;stroke-linecap:round;stroke-linejoin:round;stroke-dasharray:none;stroke-opacity:1;paint-order:stroke markers fill"
           id="rect3241"
           width="285.75"
           height="508"
           x="0"
           y="0" /><path
           style="opacity:1;fill:none;fill-opacity:1;fill-rule:evenodd;stroke:url(#linearGradient7697);stroke-width:1.30972;stroke-linecap:round;stroke-linejoin:round;stroke-dasharray:none;stroke-opacity:1;paint-order:stroke markers fill"
           d="m 0.65233527,508 c 0,0 25.45689873,-176.99288 169.10334473,-238.41173 108.17868,-46.25392 146.60795,-152.29314 146.60795,-152.29314"
           id="path5296"
           sodipodi:nodetypes="csc"
           clip-path="url(#clipPath6555)" /></g><g
         id="g607"
         transform="matrix(0.50000002,0,0,0.50000002,113.40587,202.14196)"
         inkscape:label="logo"><path
           fill="#51a2da"
           d="M 67.77483,0 C 30.36665,0 0.07878,29.732002 0.0126,66.438752 H 0 v 51.430478 h 0.0126 c 0.0174,8.3247 6.90194,15.06782 15.39209,15.06782 h 52.37676 c 37.41481,-0.0238 67.69606,-29.75187 67.69606,-66.438739 5e-5,-36.70675 -30.32095,-66.438755 -67.76224,-66.438755 z"
           id="path603"
           style="fill:#51a2da;fill-opacity:1" /><path
           fill="#ffffff"
           d="m 81.54629,27.337877 c -10.56799,0 -19.90324,7.801562 -21.19561,18.038694 -0.0868,0.856948 -0.11179,1.474652 -0.11679,2.25154 l 0.0124,41.854812 c 0,8.0289 -6.12782,13.493227 -13.78418,13.493227 -7.66691,0 -13.8436,-6.008637 -13.8436,-13.506147 0.12574,-8.230728 6.84267,-13.450867 14.67766,-13.678237 h 0.0419 l 7.95404,-0.07183 V 64.668931 l -7.95404,0.05891 c -14.2605,-0.12574 -25.57978,10.82588 -25.99324,24.748872 0,13.539207 11.34236,24.576797 25.11319,24.576797 12.98996,0 23.80035,-9.95243 24.9809,-22.406387 0.1702,-4.239107 0.0873,-9.833503 0.0873,-9.833503 0.0238,-2.303511 -0.0365,-1.476328 -0.0124,-6.050278 l 9.86659,-0.07183 c 7.6344,0.05295 7.54863,-11.225802 -0.0879,-11.070643 l -9.7808,0.07131 c 0,-5.677739 0.0911,-11.320375 0,-17.006713 0.007,-4.918056 4.7563,-9.264033 10.02574,-9.264033 5.27077,0 10.84585,2.580457 10.84585,9.264033 0,0.954889 -0.0195,1.510723 -0.0734,1.864484 -0.58829,3.099594 1.57066,6.061962 4.75165,6.509166 3.18098,0.442039 6.10201,-1.811142 6.41718,-4.94647 0.18261,-1.239441 0.1757,-2.332945 0.1757,-3.426148 0,-11.785592 -10.74013,-20.32899 -22.11545,-20.32899 z"
           id="path605"
           style="fill:#ffffff;fill-opacity:1" /></g></g></g></svg>
