<?xml version="1.0" encoding="UTF-8" standalone="no"?>
<!-- Created with Inkscape (http://www.inkscape.org/) -->

<svg
   width="1080"
   height="1920"
   viewBox="0 0 285.74999 508"
   version="1.1"
   id="svg5"
   xml:space="preserve"
   inkscape:version="1.2.2 (b0a8486541, 2022-12-01)"
   sodipodi:docname="Kali Wallpaper.svg"
   xmlns:inkscape="http://www.inkscape.org/namespaces/inkscape"
   xmlns:sodipodi="http://sodipodi.sourceforge.net/DTD/sodipodi-0.dtd"
   xmlns:xlink="http://www.w3.org/1999/xlink"
   xmlns="http://www.w3.org/2000/svg"
   xmlns:svg="http://www.w3.org/2000/svg"><sodipodi:namedview
     id="namedview7"
     pagecolor="#ffffff"
     bordercolor="#000000"
     borderopacity="0.25"
     inkscape:showpageshadow="false"
     inkscape:pageopacity="0.0"
     inkscape:pagecheckerboard="true"
     inkscape:deskcolor="#d1d1d1"
     inkscape:document-units="mm"
     showgrid="false"
     showborder="false"
     inkscape:zoom="0.32521701"
     inkscape:cx="289.03777"
     inkscape:cy="1119.2526"
     inkscape:window-width="1920"
     inkscape:window-height="1011"
     inkscape:window-x="0"
     inkscape:window-y="0"
     inkscape:window-maximized="1"
     inkscape:current-layer="layer1" /><defs
     id="defs2"><linearGradient
       inkscape:collect="always"
       id="linearGradient7833"><stop
         style="stop-color:#312aff;stop-opacity:1;"
         offset="0"
         id="stop7827" /><stop
         style="stop-color:#c18eff;stop-opacity:1;"
         offset="0.45979753"
         id="stop7829" /><stop
         style="stop-color:#9700b6;stop-opacity:1;"
         offset="0.87146288"
         id="stop7831" /></linearGradient><linearGradient
       inkscape:collect="always"
       id="linearGradient2584"><stop
         style="stop-color:#75b4da;stop-opacity:1;"
         offset="0"
         id="stop2578" /><stop
         style="stop-color:#ebf6ff;stop-opacity:1;"
         offset="0.47431508"
         id="stop2580" /><stop
         style="stop-color:#2123e5;stop-opacity:1;"
         offset="1"
         id="stop2582" /></linearGradient><linearGradient
       inkscape:collect="always"
       id="linearGradient7695"><stop
         style="stop-color:#2f27d3;stop-opacity:0.60758799;"
         offset="0"
         id="stop7691" /><stop
         style="stop-color:#cf00ff;stop-opacity:1;"
         offset="1"
         id="stop7693" /></linearGradient><linearGradient
       inkscape:collect="always"
       id="linearGradient3247"><stop
         style="stop-color:#ff7e2f;stop-opacity:1;"
         offset="0"
         id="stop3243" /><stop
         style="stop-color:#cb595f;stop-opacity:1;"
         offset="0.47431508"
         id="stop10735" /><stop
         style="stop-color:#7030a0;stop-opacity:1;"
         offset="1"
         id="stop3245" /></linearGradient><inkscape:path-effect
       effect="powerclip"
       id="path-effect3237"
       is_visible="true"
       lpeversion="1"
       inverse="true"
       flatten="false"
       hide_clip="false"
       message="Use fill-rule evenodd on &lt;b&gt;fill and stroke&lt;/b&gt; dialog if no flatten result after convert clip to paths." /><clipPath
       clipPathUnits="userSpaceOnUse"
       id="clipPath3227"><g
         id="g3235"
         style="display:block"><path
           style="color:#000000;fill:#ffffff;fill-opacity:1;fill-rule:evenodd;stroke-linecap:round;stroke-linejoin:round;-inkscape-stroke:none;paint-order:stroke markers fill"
           d="m 650.80273,144.88867 c -7.23946,0 -13.2207,5.9832 -13.2207,13.22266 10e-6,7.23945 5.98125,13.22071 13.2207,13.2207 7.23945,0 13.22266,-5.98125 13.22266,-13.2207 10e-6,-7.23946 -5.9832,-13.22265 -13.22266,-13.22266 z"
           id="path3229"
           sodipodi:nodetypes="sssss" /><path
           style="color:#000000;fill:#ffffff;fill-opacity:1;fill-rule:evenodd;stroke-linecap:round;stroke-linejoin:round;-inkscape-stroke:none;paint-order:stroke markers fill"
           d="m 649.01367,185.5957 c -7.23946,0 -13.22266,5.98124 -13.22265,13.22071 0,7.23945 5.9832,13.22266 13.22265,13.22265 7.23945,0 13.2207,-5.9832 13.2207,-13.22265 10e-6,-7.23946 -5.98124,-13.2207 -13.2207,-13.22071 z"
           id="path3231"
           sodipodi:nodetypes="sssss" /><path
           style="color:#000000;fill:#ffffff;fill-opacity:1;fill-rule:evenodd;stroke-linecap:round;stroke-linejoin:round;-inkscape-stroke:none;paint-order:stroke markers fill"
           d="m 615.91797,163.44922 c -7.23946,-1e-5 -13.22265,5.9832 -13.22266,13.22265 0,7.23947 5.9832,13.22071 13.22266,13.22071 7.23945,-1e-5 13.22071,-5.98125 13.2207,-13.22071 0,-7.23944 -5.98125,-13.22265 -13.2207,-13.22265 z"
           id="path3233"
           sodipodi:nodetypes="sssss" /></g></clipPath><radialGradient
       inkscape:collect="always"
       xlink:href="#linearGradient7833"
       id="radialGradient3375"
       cx="7.6401968"
       cy="152.15646"
       fx="7.6401968"
       fy="152.15646"
       r="142.875"
       gradientTransform="matrix(2.2999556,3.8958181,-3.8968138,2.300543,575.35332,-379.8073)"
       gradientUnits="userSpaceOnUse"
       spreadMethod="repeat" /><linearGradient
       inkscape:collect="always"
       xlink:href="#linearGradient7695"
       id="linearGradient7697"
       x1="-60.038765"
       y1="311.65381"
       x2="337.45734"
       y2="311.65381"
       gradientUnits="userSpaceOnUse"
       gradientTransform="matrix(0.79690224,0,0,1.2299446,47.970244,-70.669373)" /><radialGradient
       inkscape:collect="always"
       xlink:href="#linearGradient3247"
       id="radialGradient10747"
       gradientUnits="userSpaceOnUse"
       gradientTransform="matrix(2.2999556,3.8958181,-3.8968138,2.300543,575.35331,-379.80731)"
       cx="7.6401968"
       cy="152.15646"
       fx="7.6401968"
       fy="152.15646"
       r="142.875" /><clipPath
       clipPathUnits="userSpaceOnUse"
       id="clipPath6555"><rect
         style="display:inline;opacity:1;fill:url(#radialGradient6559);fill-opacity:1;fill-rule:evenodd;stroke:none;stroke-width:10.5833;stroke-linecap:round;stroke-linejoin:round;stroke-dasharray:none;stroke-opacity:1;paint-order:stroke markers fill"
         id="rect6557"
         width="285.75"
         height="508"
         x="-1.5695394e-05"
         y="3.88326e-06" /></clipPath><radialGradient
       inkscape:collect="always"
       xlink:href="#linearGradient2584"
       id="radialGradient6559"
       gradientUnits="userSpaceOnUse"
       gradientTransform="matrix(2.2999556,3.8958181,-3.8968138,2.300543,575.35332,-379.80729)"
       cx="7.6401968"
       cy="152.15646"
       fx="7.6401968"
       fy="152.15646"
       r="142.875" /><filter
       inkscape:collect="always"
       style="color-interpolation-filters:sRGB"
       id="filter25767"
       x="-0.10247964"
       y="-0.057644796"
       width="1.2049593"
       height="1.1152896"><feGaussianBlur
         inkscape:collect="always"
         stdDeviation="12.201482"
         id="feGaussianBlur25769" /></filter><radialGradient
       inkscape:collect="always"
       xlink:href="#linearGradient7833"
       id="radialGradient34518"
       gradientUnits="userSpaceOnUse"
       gradientTransform="matrix(2.2999556,3.8958181,-3.8968138,2.300543,575.35332,-379.8073)"
       cx="7.6401968"
       cy="152.15646"
       fx="7.6401968"
       fy="152.15646"
       r="142.875"
       spreadMethod="repeat" /><filter
       inkscape:collect="always"
       style="color-interpolation-filters:sRGB"
       id="filter34522"
       x="-0.12214669"
       y="-0.068707511"
       width="1.2442934"
       height="1.137415"><feGaussianBlur
         inkscape:collect="always"
         stdDeviation="14.54309"
         id="feGaussianBlur34520" /></filter><clipPath
       clipPathUnits="userSpaceOnUse"
       id="clipPath34524"><rect
         style="display:inline;opacity:1;mix-blend-mode:normal;fill:url(#radialGradient34528);fill-opacity:1;fill-rule:evenodd;stroke:none;stroke-width:7.90832;stroke-linecap:round;stroke-linejoin:round;stroke-dasharray:none;stroke-opacity:1;paint-order:stroke markers fill"
         id="rect34526"
         width="213.52525"
         height="379.60046"
         x="36.112385"
         y="64.199783" /></clipPath><radialGradient
       inkscape:collect="always"
       xlink:href="#linearGradient7833"
       id="radialGradient34528"
       gradientUnits="userSpaceOnUse"
       gradientTransform="matrix(1.7186303,2.9111306,-2.9118747,1.7190692,466.04228,-219.60933)"
       cx="7.6401968"
       cy="152.15646"
       fx="7.6401968"
       fy="152.15646"
       r="142.875"
       spreadMethod="repeat" /></defs><g
     inkscape:label="Layer 1"
     inkscape:groupmode="layer"
     id="layer1"
     transform="translate(339.75405,118.38656)"
     inkscape:export-filename="../../Pictures/linux-wallpapers-mobile/Kali Wallpaper.png"
     inkscape:export-xdpi="96"
     inkscape:export-ydpi="96"><g
       inkscape:label="Layer 1"
       id="layer1-5"
       inkscape:export-filename="../../Pictures/linux-wallpapers-mobile/Fedora Wallpaper.png"
       inkscape:export-xdpi="96"
       inkscape:export-ydpi="96"
       transform="translate(-339.75261,-118.38656)"><g
         id="g10739"
         inkscape:label="background"><rect
           style="display:inline;opacity:1;mix-blend-mode:normal;fill:url(#radialGradient34518);fill-opacity:1;fill-rule:evenodd;stroke:none;stroke-width:10.5833;stroke-linecap:round;stroke-linejoin:round;stroke-dasharray:none;stroke-opacity:1;paint-order:stroke markers fill;filter:url(#filter34522)"
           id="rect3241"
           width="285.75"
           height="508"
           x="0"
           y="0"
           clip-path="url(#clipPath34524)"
           transform="matrix(1.3382492,0,0,1.3382492,-48.328805,-85.915307)" /><path
           style="opacity:1;fill:none;fill-opacity:1;fill-rule:evenodd;stroke:url(#linearGradient7697);stroke-width:1.30972;stroke-linecap:round;stroke-linejoin:round;stroke-dasharray:none;stroke-opacity:1;paint-order:stroke markers fill"
           d="m 0.65233527,508 c 0,0 25.45689873,-176.99288 169.10334473,-238.41173 108.17868,-46.25392 146.60795,-152.29314 146.60795,-152.29314"
           id="path5296"
           sodipodi:nodetypes="csc"
           clip-path="url(#clipPath6555)" /></g><g
         id="g25236"
         inkscape:label="logo"
         transform="matrix(0.039649,0,0,-0.039649,88.176569,264.24726)"
         style="fill:#ffffff;fill-opacity:1"><path
           d="m 2059.39,1068.59 c 0.06,1.14 0.24,1.63 0.07,1.86 -7.75,10.62 -15.48,21.25 -23.36,31.77 -0.97,1.29 -2.72,1.99 -4.63,3.32 -1.85,-5.79 -1.35,-10.91 -1.12,-15.99 0.03,-0.52 0.51,-1.09 0.91,-1.51 7.93,-8.24 16.4,-15.72 28.13,-19.45 z M 344.398,1773.18 c 1.754,-0.27 3.5,-0.75 5.258,-0.79 17.582,-0.35 35.176,-0.47 52.754,-0.98 31.754,-0.92 63.504,-1.96 95.25,-3.13 21.164,-0.78 42.336,-1.56 63.477,-2.84 36.093,-2.19 72.191,-4.48 108.242,-7.29 29.676,-2.31 59.34,-4.97 88.918,-8.29 37.121,-4.16 74.176,-8.94 111.207,-13.86 40.992,-5.43 81.734,-12.5 122.289,-20.6 77.097,-15.4 153.167,-34.6 226.367,-63.72 20.95,-8.33 41.26,-18.29 61.84,-27.54 1.6,-0.73 3.07,-1.74 4.36,-2.48 -2.47,-11.7 -5.27,-22.94 -7.17,-34.32 -6.04,-36.03 -6.36,-72.01 2.53,-107.7 14.13,-56.75 48.9,-96.43 101.15,-121.43 18.64,-8.92 38.16,-15.35 58.34,-19.76 2.89,-0.63 5.91,-0.97 8.88,-0.97 27.8,-0.08 55.6,-0.21 83.39,0.04 10.87,0.09 21.42,-1.04 32,-3.66 44.24,-10.95 88.14,-23.04 130.63,-39.67 14.49,-5.67 28.53,-12.51 42.78,-18.81 1.59,-0.71 3.19,-1.4 5.47,-2.4 0,7.97 0,15.25 0,22.54 19.48,-28.05 46.18,-45.13 79.11,-55.82 -1.55,10.83 -2.95,20.59 -4.35,30.34 0.24,0.22 0.48,0.44 0.73,0.66 1.25,-1.29 2.53,-2.54 3.73,-3.86 14.36,-15.9 29.23,-31.3 45.83,-44.86 9.1,-7.43 18.98,-13.94 28.63,-20.69 2.39,-1.68 5.25,-2.7 8.96,-4.56 -1.11,14.54 -4.76,27.72 -6.38,42.63 4.58,-4.84 8.18,-8.77 11.92,-12.55 18.84,-19.04 37.8,-37.96 56.55,-57.1 6.78,-6.93 13.92,-11 24.31,-9.14 8.58,1.55 17.52,1.11 26.3,1.52 1.99,0.09 3.98,0.01 6.12,0.01 9.76,-14.75 19.33,-29.51 29.19,-44.06 8.74,-12.89 17.83,-25.55 26.72,-38.35 2.05,-2.95 4.12,-5.92 5.79,-9.08 4.7,-8.95 3.73,-12.09 -5.3,-16.94 0.79,-1.28 1.35,-2.74 2.35,-3.77 24.57,-25.35 52.68,-45.36 86.6,-56.228 9.66,-3.094 19.72,-4.922 29.99,-7.426 -1.14,-0.902 -2.4,-1.957 -3.71,-2.937 -15.85,-11.852 -31.8,-23.571 -47.5,-35.614 -4.55,-3.492 -8.39,-7.906 -13,-12.312 -3.27,3.461 -6.85,7.336 -10.53,11.113 -30.85,31.711 -64.73,59.544 -104.07,80.194 -10.07,5.29 -20.68,9.53 -30.91,14.51 -12.98,6.32 -25.44,13.5 -36.08,23.43 -1.9,1.77 -3.72,3.64 -5.43,5.59 -5.59,6.4 -8.66,13.67 -8.66,22.37 0,9.37 -0.65,18.75 -1.02,28.34 -1.03,0.69 -1.93,1.46 -2.97,1.96 -78.76,37.76 -158.47,73.34 -240.34,103.91 -35.94,13.43 -72.29,25.58 -109.59,34.8 -15.04,3.72 -30.3,5.52 -45.64,6.26 -20.75,0.99 -41.55,1.35 -62.32,1.42 -40.52,0.13 -78,-10.84 -113.03,-31.14 -47.27,-27.38 -85.29,-63.81 -111.54,-112 -16.62,-30.51 -27.04,-63.1 -31.51,-97.53 -1.51,-11.67 -2.47,-23.44 -3.16,-35.196 -0.93,-15.863 1.55,-31.5 4.42,-47.031 6.85,-37.11 19.41,-72.102 39.63,-104.11 31.31,-49.554 75.18,-83.214 130.32,-102.535 21.77,-7.629 44.19,-12.468 67.04,-15.347 5.54,-0.7 11.15,-0.871 16.74,-1.129 21.15,-1.024 42.31,-1.961 63.47,-2.961 25.55,-1.211 51.09,-2.403 76.63,-3.692 20.36,-1.031 40.73,-1.769 61.04,-3.418 21.89,-1.781 43.79,-3.902 65.54,-6.91 28.09,-3.89 56.16,-8.109 84.01,-13.422 84.68,-16.168 166.92,-40.41 245.34,-76.687 55.6,-25.731 107.66,-57.133 154.35,-97.043 48.13,-41.141 87.48,-89.289 115.98,-146.02 14.58,-29.031 25.73,-59.359 33.55,-90.898 0.29,-1.16 0.54,-2.332 0.7,-3.512 0.1,-0.777 0.02,-1.578 0.02,-3.258 -0.93,1.278 -1.57,1.868 -1.86,2.598 -21.77,55.59 -54.02,104.633 -93.55,149.02 -46.41,52.101 -101.18,93.48 -163,125.601 -60.78,31.57 -125.21,52.27 -192.56,64.16 -2.52,0.442 -5.05,0.782 -8.05,0.321 0.85,-0.879 1.59,-1.922 2.56,-2.621 33.79,-24.372 65.62,-51.09 95.84,-79.739 72.96,-69.16 134.97,-146.769 181.4,-236.281 31.22,-60.18 53.37,-123.52 64.88,-190.422 4.14,-24.0467 6.96,-48.2577 7.84,-72.6561 0.43,-11.7813 0.76,-23.5625 0.4,-35.4219 -1.57,8.67969 -3.08,17.3789 -4.71,26.0508 -6.94,36.9687 -16.72,73.1992 -28.2,108.9882 -14.8,46.109 -32.76,90.961 -54.31,134.332 -35.19,70.809 -78.65,135.957 -133.62,193.051 -84.04,87.277 -184.96,145.008 -303.13,172.34 -33.94,7.847 -68.24,13.468 -103,15.468 -21.34,1.219 -42.75,1.079 -64.13,1.489 -23.18,0.441 -46.37,0.769 -69.55,1.23 -15.78,0.321 -31.57,0.531 -47.34,1.242 -21.01,0.938 -41.69,4.457 -62.14,9.297 -37.18,8.793 -72.61,22.051 -105.48,41.711 -71.2,42.59 -116.46,104.492 -136.98,184.668 -7.87,30.758 -11.63,62 -10.51,93.793 2.08,59.09 12.57,116.31 37.77,170.24 23.09,49.4 56.2,90.47 101.53,121.28 13.09,8.89 26.87,16.56 41.18,23.28 1.78,0.83 3.52,1.74 5.69,2.8 -0.77,1.92 -1.33,3.58 -2.07,5.14 -23.91,50.83 -46.04,102.41 -64.8,155.39 -10.74,30.34 -20.42,61 -26.59,92.64 -1.44,7.45 -2.59,14.97 -3.42,22.5 -0.45,4.07 -2.15,6.49 -5.86,8.05 -16.92,7.16 -33.58,14.98 -50.72,21.59 -54.69,21.09 -110.95,37.21 -167.76,51.42 -63.2,15.8 -126.934,29.11 -191.164,39.93 -41.758,7.03 -83.578,13.71 -125.469,19.86 -32.41,4.76 -64.949,8.69 -97.481,12.56 -34.718,4.12 -69.476,7.91 -104.25,11.52 -23.847,2.47 -47.746,4.46 -71.632,6.51 -27.071,2.33 -54.149,4.59 -81.235,6.69 -18.926,1.46 -37.867,2.69 -56.812,3.87 -31.903,1.98 -63.813,3.91 -95.727,5.71 -14.164,0.81 -28.351,1.22 -42.527,1.88 -14.563,0.68 -29.121,1.45 -43.68,2.65 18.043,0.56 36.082,1.21 54.125,1.66 23.176,0.59 46.352,1.03 69.524,1.57 1.355,0.03 2.699,0.51 4.046,0.78 38,0 76,0 114,0"
           style="fill:#ffffff;fill-opacity:1;fill-rule:nonzero;stroke:none"
           id="path25219" /><path
           d="m 0,1455.18 c 23.0508,4.89 46.0313,10.14 69.1641,14.61 44.1169,8.54 88.2499,17.04 132.5039,24.82 40.719,7.16 81.566,13.62 122.434,19.9 29.808,4.59 59.718,8.53 89.621,12.5 27.324,3.63 54.679,7.05 82.05,10.32 19.836,2.37 39.715,4.41 59.586,6.48 22.254,2.32 44.512,4.59 66.786,6.72 15.515,1.48 31.05,2.76 46.585,4 24.293,1.95 48.594,3.87 72.903,5.63 14.945,1.07 29.914,1.93 44.875,2.72 30.328,1.61 60.648,3.27 90.988,4.6 19.965,0.88 39.949,1.3 59.926,1.75 22.578,0.51 45.16,0.94 67.738,1.2 26.39,0.31 52.78,0.63 79.16,0.53 22.18,-0.07 44.37,-0.58 66.54,-1.18 21.97,-0.59 43.93,-1.53 65.89,-2.37 3.58,-0.14 7.15,-0.56 11.5,-0.91 3.65,-14.51 7.32,-29.12 11.16,-44.36 -6.55,0.3 -12.49,0.5 -18.42,0.83 -11.96,0.67 -23.92,1.59 -35.89,2.09 -23.96,1 -47.92,1.86 -71.89,2.65 -15.37,0.52 -30.76,1.03 -46.14,1.18 -51.18,0.5 -102.355,0.95 -153.535,1.18 -22.789,0.11 -45.586,-0.27 -68.375,-0.6 -17.183,-0.25 -34.363,-0.68 -51.543,-1.2 -23.765,-0.71 -47.531,-1.45 -71.289,-2.41 -26.152,-1.05 -52.301,-2.22 -78.433,-3.59 -26.934,-1.41 -53.864,-2.98 -80.778,-4.75 -27.711,-1.81 -55.418,-3.72 -83.09,-5.99 -36.238,-2.98 -72.468,-6.11 -108.656,-9.61 -33.805,-3.27 -67.598,-6.74 -101.312,-10.79 -47.004,-5.66 -93.989,-11.53 -140.879,-18.06 -40.5472,-5.65 -80.9495,-12.35 -121.42219,-18.53 -2.55468,-0.4 -5.17187,-0.38 -7.75781,-0.56 0,0.4 0,0.8 0,1.2"
           style="fill:#ffffff;fill-opacity:1;fill-rule:nonzero;stroke:none"
           id="path25221" /><path
           d="m 1245.17,1490.68 c 4.9,-15.95 9.68,-31.52 14.65,-47.71 -2.43,-0.18 -4.15,-0.38 -5.88,-0.43 -21.37,-0.58 -42.78,-0.54 -64.11,-1.86 -25.7,-1.6 -51.36,-4.14 -77,-6.65 -36.99,-3.63 -73.69,-9.44 -110.26,-16.01 -59.203,-10.64 -117.777,-24.1 -175.832,-39.81 -99.586,-26.94 -197.164,-59.92 -293.175,-97.62 -77.95,-30.61 -154.696,-64 -229.977,-100.67 -36.988,-18.01 -73.371,-37.28 -110.023,-55.98 -2.204,-1.12 -4.395,-2.27 -6.59,-3.41 -0.215,0.39 -0.426,0.77 -0.641,1.16 1.563,1.09 3.078,2.25 4.695,3.25 58.371,35.99 118.121,69.53 179.168,100.77 114.008,58.34 231.664,108.08 352.832,149.48 97.996,33.49 197.586,61.26 299.003,82.39 43.61,9.09 87.4,17.19 131.52,23.34 27.29,3.81 54.73,6.58 82.11,9.71 2.94,0.34 5.94,0.05 9.51,0.05"
           style="fill:#ffffff;fill-opacity:1;fill-rule:nonzero;stroke:none"
           id="path25223" /></g></g></g></svg>
