<?xml version="1.0" encoding="UTF-8" standalone="no"?>
<!-- Created with Inkscape (http://www.inkscape.org/) -->

<svg
   width="1080"
   height="1920"
   viewBox="0 0 285.75 508"
   version="1.1"
   id="svg5"
   xml:space="preserve"
   inkscape:version="1.2.2 (b0a8486541, 2022-12-01)"
   sodipodi:docname="Mint Wallpaper.svg"
   inkscape:export-filename="Mint Wallpaper.png"
   inkscape:export-xdpi="96"
   inkscape:export-ydpi="96"
   xmlns:inkscape="http://www.inkscape.org/namespaces/inkscape"
   xmlns:sodipodi="http://sodipodi.sourceforge.net/DTD/sodipodi-0.dtd"
   xmlns:xlink="http://www.w3.org/1999/xlink"
   xmlns="http://www.w3.org/2000/svg"
   xmlns:svg="http://www.w3.org/2000/svg"><sodipodi:namedview
     id="namedview7"
     pagecolor="#ffffff"
     bordercolor="#cccccc"
     borderopacity="1"
     inkscape:showpageshadow="0"
     inkscape:pageopacity="1"
     inkscape:pagecheckerboard="true"
     inkscape:deskcolor="#d1d1d1"
     inkscape:document-units="mm"
     showgrid="false"
     showborder="false"
     inkscape:zoom="0.38440306"
     inkscape:cx="340.78813"
     inkscape:cy="952.12562"
     inkscape:window-width="1920"
     inkscape:window-height="1011"
     inkscape:window-x="0"
     inkscape:window-y="0"
     inkscape:window-maximized="1"
     inkscape:current-layer="layer1" /><defs
     id="defs2"><linearGradient
       inkscape:collect="always"
       id="linearGradient1145"><stop
         style="stop-color:#1eb57e;stop-opacity:1;"
         offset="0"
         id="stop1139" /><stop
         style="stop-color:#73c9a1;stop-opacity:1;"
         offset="0.47431508"
         id="stop1141" /><stop
         style="stop-color:#007808;stop-opacity:1;"
         offset="1"
         id="stop1143" /></linearGradient><linearGradient
       inkscape:collect="always"
       id="linearGradient1107"><stop
         style="stop-color:#1fb567;stop-opacity:1;"
         offset="0"
         id="stop1101" /><stop
         style="stop-color:#75cba5;stop-opacity:1;"
         offset="0.47431508"
         id="stop1103" /><stop
         style="stop-color:#007808;stop-opacity:1;"
         offset="1"
         id="stop1105" /></linearGradient><linearGradient
       inkscape:collect="always"
       id="linearGradient7695"><stop
         style="stop-color:#3aff30;stop-opacity:1;"
         offset="0"
         id="stop7691" /><stop
         style="stop-color:#000000;stop-opacity:0.12615955;"
         offset="1"
         id="stop7693" /></linearGradient><inkscape:path-effect
       effect="powerclip"
       id="path-effect3237"
       is_visible="true"
       lpeversion="1"
       inverse="true"
       flatten="false"
       hide_clip="false"
       message="Use fill-rule evenodd on &lt;b&gt;fill and stroke&lt;/b&gt; dialog if no flatten result after convert clip to paths." /><clipPath
       clipPathUnits="userSpaceOnUse"
       id="clipPath3227"><g
         id="g3235"
         style="display:block"><path
           style="color:#000000;fill:#ffffff;fill-opacity:1;fill-rule:evenodd;stroke-linecap:round;stroke-linejoin:round;-inkscape-stroke:none;paint-order:stroke markers fill"
           d="m 650.80273,144.88867 c -7.23946,0 -13.2207,5.9832 -13.2207,13.22266 10e-6,7.23945 5.98125,13.22071 13.2207,13.2207 7.23945,0 13.22266,-5.98125 13.22266,-13.2207 10e-6,-7.23946 -5.9832,-13.22265 -13.22266,-13.22266 z"
           id="path3229"
           sodipodi:nodetypes="sssss" /><path
           style="color:#000000;fill:#ffffff;fill-opacity:1;fill-rule:evenodd;stroke-linecap:round;stroke-linejoin:round;-inkscape-stroke:none;paint-order:stroke markers fill"
           d="m 649.01367,185.5957 c -7.23946,0 -13.22266,5.98124 -13.22265,13.22071 0,7.23945 5.9832,13.22266 13.22265,13.22265 7.23945,0 13.2207,-5.9832 13.2207,-13.22265 10e-6,-7.23946 -5.98124,-13.2207 -13.2207,-13.22071 z"
           id="path3231"
           sodipodi:nodetypes="sssss" /><path
           style="color:#000000;fill:#ffffff;fill-opacity:1;fill-rule:evenodd;stroke-linecap:round;stroke-linejoin:round;-inkscape-stroke:none;paint-order:stroke markers fill"
           d="m 615.91797,163.44922 c -7.23946,-1e-5 -13.22265,5.9832 -13.22266,13.22265 0,7.23947 5.9832,13.22071 13.22266,13.22071 7.23945,-1e-5 13.22071,-5.98125 13.2207,-13.22071 0,-7.23944 -5.98125,-13.22265 -13.2207,-13.22265 z"
           id="path3233"
           sodipodi:nodetypes="sssss" /></g></clipPath><radialGradient
       inkscape:collect="always"
       xlink:href="#linearGradient1145"
       id="radialGradient3375"
       cx="7.6401968"
       cy="152.15646"
       fx="7.6401968"
       fy="152.15646"
       r="142.875"
       gradientTransform="matrix(2.2999556,3.8958181,-3.8968138,2.300543,575.35332,-379.8073)"
       gradientUnits="userSpaceOnUse" /><linearGradient
       inkscape:collect="always"
       xlink:href="#linearGradient7695"
       id="linearGradient7697"
       x1="-60.038765"
       y1="311.65381"
       x2="337.45734"
       y2="311.65381"
       gradientUnits="userSpaceOnUse"
       gradientTransform="matrix(0.79690224,0,0,1.2204759,47.970244,-69.222338)" /><linearGradient
       x1="112.49854"
       y1="6.1372099"
       x2="112.49853"
       y2="129.3468"
       id="path1082_2_"
       gradientUnits="userSpaceOnUse"
       gradientTransform="translate(287,-83)"><stop
         id="stop193"
         style="stop-color:#ffffff;stop-opacity:0"
         offset="0" /><stop
         id="stop195"
         style="stop-color:#ffffff;stop-opacity:0.27450982"
         offset="1" /><midPointStop
         offset="0"
         style="stop-color:#FFFFFF"
         id="midPointStop197" /><midPointStop
         offset="0.5"
         style="stop-color:#FFFFFF"
         id="midPointStop199" /><midPointStop
         offset="1"
         style="stop-color:#000000"
         id="midPointStop201" /></linearGradient><linearGradient
       x1="541.33502"
       y1="104.50665"
       x2="606.91248"
       y2="303.14029"
       id="linearGradient2544"
       xlink:href="#path1082_2_"
       gradientUnits="userSpaceOnUse"
       gradientTransform="matrix(-0.3937741,0,0,0.393752,357.51969,122.00151)" /><linearGradient
       id="linearGradient3388"><stop
         id="stop3390"
         style="stop-color:#000000;stop-opacity:0"
         offset="0" /><stop
         id="stop3392"
         style="stop-color:#000000;stop-opacity:0.37113401"
         offset="1" /></linearGradient><linearGradient
       x1="490.72305"
       y1="237.72447"
       x2="490.72305"
       y2="183.9644"
       id="linearGradient4416"
       xlink:href="#linearGradient3388"
       gradientUnits="userSpaceOnUse"
       gradientTransform="matrix(0.749107,0,0,0.749107,-35.459862,91.44108)" /><clipPath
       clipPathUnits="userSpaceOnUse"
       id="clipPath1133"><rect
         style="opacity:1;fill:url(#radialGradient1137);fill-opacity:1;fill-rule:evenodd;stroke:none;stroke-width:10.5833;stroke-linecap:round;stroke-linejoin:round;stroke-dasharray:none;stroke-opacity:1;paint-order:stroke markers fill"
         id="rect1135"
         width="285.75"
         height="508"
         x="0"
         y="0" /></clipPath><radialGradient
       inkscape:collect="always"
       xlink:href="#linearGradient1107"
       id="radialGradient1137"
       gradientUnits="userSpaceOnUse"
       gradientTransform="matrix(2.2999556,3.8958181,-3.8968138,2.300543,575.35331,-379.80731)"
       cx="7.6401968"
       cy="152.15646"
       fx="7.6401968"
       fy="152.15646"
       r="142.875" /></defs><g
     inkscape:label="Layer 1"
     inkscape:groupmode="layer"
     id="layer1"
     inkscape:export-filename="../../Pictures/linux-wallpapers-mobile/Mint Wallpaper.png"
     inkscape:export-xdpi="96"
     inkscape:export-ydpi="96"><g
       id="g10739"
       inkscape:label="background"><rect
         style="opacity:1;fill:url(#radialGradient3375);fill-opacity:1;fill-rule:evenodd;stroke:none;stroke-width:10.5833;stroke-linecap:round;stroke-linejoin:round;stroke-dasharray:none;stroke-opacity:1;paint-order:stroke markers fill"
         id="rect3241"
         width="285.75"
         height="508"
         x="0"
         y="0" /><path
         style="opacity:1;fill:none;fill-opacity:1;fill-rule:evenodd;stroke:url(#linearGradient7697);stroke-width:1.30467;stroke-linecap:round;stroke-linejoin:round;stroke-dasharray:none;stroke-opacity:1;paint-order:stroke markers fill"
         d="m 0.65233527,504.99219 c 0,0 25.45689873,-175.63032 169.10334473,-236.57634 108.17868,-45.89784 146.60795,-151.12072 146.60795,-151.12072"
         id="path5296"
         sodipodi:nodetypes="csc"
         clip-path="url(#clipPath1133)" /></g><g
       transform="matrix(0.32205925,0,0,0.32205925,98.018481,158.74923)"
       id="g2424"
       inkscape:label="logo_mint"><path
         id="path40"
         style="fill:#ffffff;fill-opacity:1;stroke-width:0"
         d="m 143.89912,140.6511 a 105.15663,105.15663 0 0 0 -53.399855,14.81012 v 114.9926 c 0,11.92325 9.436686,21.35994 21.359945,21.35994 h 64.07982 c 11.92324,0 21.35994,-9.43669 21.35994,-21.35994 v -53.39985 c 0,-6.02487 -4.65511,-10.67997 -10.67997,-10.67997 -6.02487,0 -10.67997,4.6551 -10.67997,10.67997 v 53.39985 h -21.35994 v -53.39985 c 0,-6.02487 -4.65511,-10.67997 -10.67997,-10.67997 -6.02488,0 -10.67997,4.6551 -10.67997,10.67997 v 53.39985 h -21.35994 v -53.39985 c 0,-17.56862 14.47128,-32.03991 32.03991,-32.03991 8.20747,0 15.66408,3.24456 21.35994,8.40149 5.69585,-5.15693 13.15246,-8.40149 21.35994,-8.40149 17.56862,0 32.03991,14.47129 32.03991,32.03991 v 53.39985 c 0,23.46699 -19.25289,42.71989 -42.71988,42.71989 h -64.07982 c -23.466997,0 -42.719886,-19.2529 -42.719886,-42.71989 V 172.23371 A 105.15663,105.15663 0 0 0 38.742484,245.80774 105.15663,105.15663 0 0 0 143.89912,350.96437 105.15663,105.15663 0 0 0 249.05575,245.80774 105.15663,105.15663 0 0 0 143.89912,140.6511 Z m -74.759796,31.58261 a 105.15663,105.15663 0 0 1 5.803703,-5.8037 c -1.998025,1.73382 -3.939809,3.53695 -5.803703,5.42984 z m 5.803703,-5.8037 c 0.0705,-0.0612 0.141148,-0.12194 0.211803,-0.18292 a 105.15663,105.15663 0 0 0 -0.211803,0.18292 z m 0.211803,-0.18292 a 105.15663,105.15663 0 0 1 11.260822,-8.42877 c -3.934879,2.57086 -7.708079,5.36277 -11.260822,8.42877 z m 11.260822,-8.42877 c 0.475968,-0.31097 0.959748,-0.61081 1.440898,-0.9146 a 105.15663,105.15663 0 0 0 -1.440898,0.9146 z m 1.440898,-0.9146 a 105.15663,105.15663 0 0 1 2.642715,-1.4425 v -0.23587 c -0.899619,0.53312 -1.76011,1.12112 -2.642715,1.67837 z" /></g></g></svg>
