<?xml version="1.0" encoding="UTF-8" standalone="no"?>
<!-- Created with Inkscape (http://www.inkscape.org/) -->

<svg
   width="1080"
   height="1920"
   viewBox="0 0 285.74999 508"
   version="1.1"
   id="svg5"
   xml:space="preserve"
   inkscape:version="1.2.2 (b0a8486541, 2022-12-01)"
   sodipodi:docname="Nobara Wallpaper.svg"
   xmlns:inkscape="http://www.inkscape.org/namespaces/inkscape"
   xmlns:sodipodi="http://sodipodi.sourceforge.net/DTD/sodipodi-0.dtd"
   xmlns:xlink="http://www.w3.org/1999/xlink"
   xmlns="http://www.w3.org/2000/svg"
   xmlns:svg="http://www.w3.org/2000/svg"><sodipodi:namedview
     id="namedview7"
     pagecolor="#ffffff"
     bordercolor="#000000"
     borderopacity="0.25"
     inkscape:showpageshadow="false"
     inkscape:pageopacity="0.0"
     inkscape:pagecheckerboard="true"
     inkscape:deskcolor="#d1d1d1"
     inkscape:document-units="mm"
     showgrid="false"
     showborder="false"
     inkscape:zoom="0.30849876"
     inkscape:cx="223.66378"
     inkscape:cy="1011.3493"
     inkscape:window-width="1920"
     inkscape:window-height="1011"
     inkscape:window-x="0"
     inkscape:window-y="0"
     inkscape:window-maximized="1"
     inkscape:current-layer="layer1" /><defs
     id="defs2"><linearGradient
       inkscape:collect="always"
       id="linearGradient34852"><stop
         style="stop-color:#000000;stop-opacity:1;"
         offset="0"
         id="stop34846" /><stop
         style="stop-color:#35003c;stop-opacity:1;"
         offset="0.45979753"
         id="stop34848" /><stop
         style="stop-color:#630078;stop-opacity:1;"
         offset="0.87146288"
         id="stop34850" /></linearGradient><linearGradient
       inkscape:collect="always"
       id="linearGradient7833"><stop
         style="stop-color:#312aff;stop-opacity:1;"
         offset="0"
         id="stop7827" /><stop
         style="stop-color:#c18eff;stop-opacity:1;"
         offset="0.45979753"
         id="stop7829" /><stop
         style="stop-color:#9700b6;stop-opacity:1;"
         offset="0.87146288"
         id="stop7831" /></linearGradient><linearGradient
       inkscape:collect="always"
       id="linearGradient2584"><stop
         style="stop-color:#75b4da;stop-opacity:1;"
         offset="0"
         id="stop2578" /><stop
         style="stop-color:#ebf6ff;stop-opacity:1;"
         offset="0.47431508"
         id="stop2580" /><stop
         style="stop-color:#2123e5;stop-opacity:1;"
         offset="1"
         id="stop2582" /></linearGradient><linearGradient
       inkscape:collect="always"
       id="linearGradient7695"><stop
         style="stop-color:#d3d3d3;stop-opacity:1;"
         offset="0"
         id="stop7691" /><stop
         style="stop-color:#7700bf;stop-opacity:1;"
         offset="1"
         id="stop7693" /></linearGradient><linearGradient
       inkscape:collect="always"
       id="linearGradient3247"><stop
         style="stop-color:#ff7e2f;stop-opacity:1;"
         offset="0"
         id="stop3243" /><stop
         style="stop-color:#cb595f;stop-opacity:1;"
         offset="0.47431508"
         id="stop10735" /><stop
         style="stop-color:#7030a0;stop-opacity:1;"
         offset="1"
         id="stop3245" /></linearGradient><inkscape:path-effect
       effect="powerclip"
       id="path-effect3237"
       is_visible="true"
       lpeversion="1"
       inverse="true"
       flatten="false"
       hide_clip="false"
       message="Use fill-rule evenodd on &lt;b&gt;fill and stroke&lt;/b&gt; dialog if no flatten result after convert clip to paths." /><clipPath
       clipPathUnits="userSpaceOnUse"
       id="clipPath3227"><g
         id="g3235"
         style="display:block"><path
           style="color:#000000;fill:#ffffff;fill-opacity:1;fill-rule:evenodd;stroke-linecap:round;stroke-linejoin:round;-inkscape-stroke:none;paint-order:stroke markers fill"
           d="m 650.80273,144.88867 c -7.23946,0 -13.2207,5.9832 -13.2207,13.22266 10e-6,7.23945 5.98125,13.22071 13.2207,13.2207 7.23945,0 13.22266,-5.98125 13.22266,-13.2207 10e-6,-7.23946 -5.9832,-13.22265 -13.22266,-13.22266 z"
           id="path3229"
           sodipodi:nodetypes="sssss" /><path
           style="color:#000000;fill:#ffffff;fill-opacity:1;fill-rule:evenodd;stroke-linecap:round;stroke-linejoin:round;-inkscape-stroke:none;paint-order:stroke markers fill"
           d="m 649.01367,185.5957 c -7.23946,0 -13.22266,5.98124 -13.22265,13.22071 0,7.23945 5.9832,13.22266 13.22265,13.22265 7.23945,0 13.2207,-5.9832 13.2207,-13.22265 10e-6,-7.23946 -5.98124,-13.2207 -13.2207,-13.22071 z"
           id="path3231"
           sodipodi:nodetypes="sssss" /><path
           style="color:#000000;fill:#ffffff;fill-opacity:1;fill-rule:evenodd;stroke-linecap:round;stroke-linejoin:round;-inkscape-stroke:none;paint-order:stroke markers fill"
           d="m 615.91797,163.44922 c -7.23946,-1e-5 -13.22265,5.9832 -13.22266,13.22265 0,7.23947 5.9832,13.22071 13.22266,13.22071 7.23945,-1e-5 13.22071,-5.98125 13.2207,-13.22071 0,-7.23944 -5.98125,-13.22265 -13.2207,-13.22265 z"
           id="path3233"
           sodipodi:nodetypes="sssss" /></g></clipPath><radialGradient
       inkscape:collect="always"
       xlink:href="#linearGradient7833"
       id="radialGradient3375"
       cx="7.6401968"
       cy="152.15646"
       fx="7.6401968"
       fy="152.15646"
       r="142.875"
       gradientTransform="matrix(2.2999556,3.8958181,-3.8968138,2.300543,575.35332,-379.8073)"
       gradientUnits="userSpaceOnUse"
       spreadMethod="repeat" /><linearGradient
       inkscape:collect="always"
       xlink:href="#linearGradient7695"
       id="linearGradient7697"
       x1="-60.038765"
       y1="311.65381"
       x2="337.45734"
       y2="311.65381"
       gradientUnits="userSpaceOnUse"
       gradientTransform="matrix(0.79690224,0,0,1.2299446,47.970244,-70.669373)" /><radialGradient
       inkscape:collect="always"
       xlink:href="#linearGradient3247"
       id="radialGradient10747"
       gradientUnits="userSpaceOnUse"
       gradientTransform="matrix(2.2999556,3.8958181,-3.8968138,2.300543,575.35331,-379.80731)"
       cx="7.6401968"
       cy="152.15646"
       fx="7.6401968"
       fy="152.15646"
       r="142.875" /><clipPath
       clipPathUnits="userSpaceOnUse"
       id="clipPath6555"><rect
         style="display:inline;opacity:1;fill:url(#radialGradient6559);fill-opacity:1;fill-rule:evenodd;stroke:none;stroke-width:10.5833;stroke-linecap:round;stroke-linejoin:round;stroke-dasharray:none;stroke-opacity:1;paint-order:stroke markers fill"
         id="rect6557"
         width="285.75"
         height="508"
         x="-1.5695394e-05"
         y="3.88326e-06" /></clipPath><radialGradient
       inkscape:collect="always"
       xlink:href="#linearGradient2584"
       id="radialGradient6559"
       gradientUnits="userSpaceOnUse"
       gradientTransform="matrix(2.2999556,3.8958181,-3.8968138,2.300543,575.35332,-379.80729)"
       cx="7.6401968"
       cy="152.15646"
       fx="7.6401968"
       fy="152.15646"
       r="142.875" /><filter
       inkscape:collect="always"
       style="color-interpolation-filters:sRGB"
       id="filter25767"
       x="-0.10247964"
       y="-0.057644796"
       width="1.2049593"
       height="1.1152896"><feGaussianBlur
         inkscape:collect="always"
         stdDeviation="12.201482"
         id="feGaussianBlur25769" /></filter><radialGradient
       inkscape:collect="always"
       xlink:href="#linearGradient34852"
       id="radialGradient34528"
       gradientUnits="userSpaceOnUse"
       gradientTransform="matrix(2.2999556,3.8958182,-3.896814,2.300543,575.3519,-379.80732)"
       cx="7.6401968"
       cy="152.15646"
       fx="7.6401968"
       fy="152.15646"
       r="142.875"
       spreadMethod="repeat" /></defs><g
     inkscape:label="Layer 1"
     inkscape:groupmode="layer"
     id="layer1"
     transform="translate(339.75405,118.38656)"
     inkscape:export-filename="../../Pictures/linux-wallpapers-mobile/Nobara Wallpaper.png"
     inkscape:export-xdpi="96"
     inkscape:export-ydpi="96"><g
       inkscape:label="Layer 1"
       id="layer1-5"
       inkscape:export-filename="../../Pictures/linux-wallpapers-mobile/Fedora Wallpaper.png"
       inkscape:export-xdpi="96"
       inkscape:export-ydpi="96"
       transform="translate(-339.75261,-118.38656)"><g
         id="g10739"
         inkscape:label="background"><rect
           style="display:inline;opacity:1;mix-blend-mode:normal;fill:url(#radialGradient34528);fill-opacity:1;fill-rule:evenodd;stroke:none;stroke-width:10.5833;stroke-linecap:round;stroke-linejoin:round;stroke-dasharray:none;stroke-opacity:1;paint-order:stroke markers fill"
           id="rect34526"
           width="285.75"
           height="508.00003"
           x="-0.0014349364"
           y="1.675116e-06" /><path
           style="opacity:1;fill:none;fill-opacity:1;fill-rule:evenodd;stroke:url(#linearGradient7697);stroke-width:1.30972;stroke-linecap:round;stroke-linejoin:round;stroke-dasharray:none;stroke-opacity:1;paint-order:stroke markers fill"
           d="m 0.65233527,508 c 0,0 25.45689873,-176.99288 169.10334473,-238.41173 108.17868,-46.25392 146.60795,-152.29314 146.60795,-152.29314"
           id="path5296"
           sodipodi:nodetypes="csc"
           clip-path="url(#clipPath6555)" /></g><g
         id="g25236"
         inkscape:label="logo"
         transform="matrix(0.03463318,0,0,-0.03463318,85.996252,263.45558)"
         style="fill:#ffffff;fill-opacity:1"><path
           style="fill:#ffffff;fill-opacity:1;stroke-width:0.0769477"
           d="m -183.40221,143.244 c -0.30342,-8.7699 -11.94749,-11.90543 -16.86882,-4.54245 -4.52334,6.76754 -14.94786,4.6876 -16.78511,-3.34904 -0.19459,-0.85119 -0.33239,-42.77429 -0.14934,-45.433 0.5621,-8.164319 10.36373,-11.83548 15.92201,-5.963533 l 0.59238,0.625787 0.92237,-0.448091 c 18.76846,-9.117503 40.90219,2.851553 43.91516,23.747567 0.22635,1.56992 0.31435,25.97506 0.0982,27.22781 -1.44653,8.38213 -12.84176,10.46077 -17.12659,3.12412 -1.2945,-2.21646 -1.26196,-1.86425 -1.26321,-13.67953 v -10.03379 l 4.48167,-1.27747 c 2.46492,-0.70261 4.4819,-1.29813 4.48219,-1.32337 0,-0.0343 -6.71023,-1.97849 -9.0094,-2.61029 -0.25811,-0.071 -0.28286,-0.10514 -0.37493,-0.51814 -0.22539,-1.01108 -0.97423,-2.66957 -1.66108,-3.67885 -6.68143,-9.81812 -21.67062,-5.599187 -22.4345,6.31454 -0.60058,9.36649 0.87003,12.35836 6.27952,12.77536 3.97415,0.30636 6.82996,2.20422 8.28771,5.5077 0.7136,1.61704 0.70889,1.57153 0.7355,7.10958 0.0215,4.49137 0,7.67266 -0.0427,6.42509 z m -4.09435,-24.16105 c -4.23359,-0.51623 -6.65113,-5.02216 -4.76854,-8.88784 2.33431,-4.79319 9.38166,-4.48571 11.30168,0.49312 1.67417,4.34121 -1.91839,8.95743 -6.53314,8.39472 z"
           id="path34760"
           sodipodi:nodetypes="csssscsscsccscsscssssccssss"
           transform="matrix(25.221317,0,0,-25.221317,6345.0792,3678.7989)" /></g></g></g></svg>
