<?xml version="1.0" encoding="UTF-8" standalone="no"?>
<!-- Created with Inkscape (http://www.inkscape.org/) -->

<svg
   width="1080"
   height="1920"
   viewBox="0 0 285.74999 508"
   version="1.1"
   id="svg5"
   xml:space="preserve"
   inkscape:version="1.2.2 (b0a8486541, 2022-12-01)"
   sodipodi:docname="SteamOS Wallpaper.svg"
   xmlns:inkscape="http://www.inkscape.org/namespaces/inkscape"
   xmlns:sodipodi="http://sodipodi.sourceforge.net/DTD/sodipodi-0.dtd"
   xmlns:xlink="http://www.w3.org/1999/xlink"
   xmlns="http://www.w3.org/2000/svg"
   xmlns:svg="http://www.w3.org/2000/svg"><sodipodi:namedview
     id="namedview7"
     pagecolor="#ffffff"
     bordercolor="#000000"
     borderopacity="0.25"
     inkscape:showpageshadow="false"
     inkscape:pageopacity="0.0"
     inkscape:pagecheckerboard="true"
     inkscape:deskcolor="#d1d1d1"
     inkscape:document-units="mm"
     showgrid="false"
     showborder="false"
     inkscape:zoom="0.30849876"
     inkscape:cx="223.66378"
     inkscape:cy="1011.3493"
     inkscape:window-width="1920"
     inkscape:window-height="1011"
     inkscape:window-x="0"
     inkscape:window-y="0"
     inkscape:window-maximized="1"
     inkscape:current-layer="layer1-5" /><defs
     id="defs2"><linearGradient
       inkscape:collect="always"
       id="linearGradient34852"><stop
         style="stop-color:#000030;stop-opacity:1;"
         offset="0"
         id="stop34846" /><stop
         style="stop-color:#3d3db6;stop-opacity:1;"
         offset="0.45979753"
         id="stop34848" /><stop
         style="stop-color:#009c9b;stop-opacity:1;"
         offset="0.87146288"
         id="stop34850" /></linearGradient><linearGradient
       inkscape:collect="always"
       id="linearGradient7833"><stop
         style="stop-color:#312aff;stop-opacity:1;"
         offset="0"
         id="stop7827" /><stop
         style="stop-color:#c18eff;stop-opacity:1;"
         offset="0.45979753"
         id="stop7829" /><stop
         style="stop-color:#9700b6;stop-opacity:1;"
         offset="0.87146288"
         id="stop7831" /></linearGradient><linearGradient
       inkscape:collect="always"
       id="linearGradient2584"><stop
         style="stop-color:#75b4da;stop-opacity:1;"
         offset="0"
         id="stop2578" /><stop
         style="stop-color:#ebf6ff;stop-opacity:1;"
         offset="0.47431508"
         id="stop2580" /><stop
         style="stop-color:#2123e5;stop-opacity:1;"
         offset="1"
         id="stop2582" /></linearGradient><linearGradient
       inkscape:collect="always"
       id="linearGradient7695"><stop
         style="stop-color:#71d3bf;stop-opacity:1;"
         offset="0"
         id="stop7691" /><stop
         style="stop-color:#09007f;stop-opacity:1;"
         offset="1"
         id="stop7693" /></linearGradient><linearGradient
       inkscape:collect="always"
       id="linearGradient3247"><stop
         style="stop-color:#ff7e2f;stop-opacity:1;"
         offset="0"
         id="stop3243" /><stop
         style="stop-color:#cb595f;stop-opacity:1;"
         offset="0.47431508"
         id="stop10735" /><stop
         style="stop-color:#7030a0;stop-opacity:1;"
         offset="1"
         id="stop3245" /></linearGradient><inkscape:path-effect
       effect="powerclip"
       id="path-effect3237"
       is_visible="true"
       lpeversion="1"
       inverse="true"
       flatten="false"
       hide_clip="false"
       message="Use fill-rule evenodd on &lt;b&gt;fill and stroke&lt;/b&gt; dialog if no flatten result after convert clip to paths." /><clipPath
       clipPathUnits="userSpaceOnUse"
       id="clipPath3227"><g
         id="g3235"
         style="display:block"><path
           style="color:#000000;fill:#ffffff;fill-opacity:1;fill-rule:evenodd;stroke-linecap:round;stroke-linejoin:round;-inkscape-stroke:none;paint-order:stroke markers fill"
           d="m 650.80273,144.88867 c -7.23946,0 -13.2207,5.9832 -13.2207,13.22266 10e-6,7.23945 5.98125,13.22071 13.2207,13.2207 7.23945,0 13.22266,-5.98125 13.22266,-13.2207 10e-6,-7.23946 -5.9832,-13.22265 -13.22266,-13.22266 z"
           id="path3229"
           sodipodi:nodetypes="sssss" /><path
           style="color:#000000;fill:#ffffff;fill-opacity:1;fill-rule:evenodd;stroke-linecap:round;stroke-linejoin:round;-inkscape-stroke:none;paint-order:stroke markers fill"
           d="m 649.01367,185.5957 c -7.23946,0 -13.22266,5.98124 -13.22265,13.22071 0,7.23945 5.9832,13.22266 13.22265,13.22265 7.23945,0 13.2207,-5.9832 13.2207,-13.22265 10e-6,-7.23946 -5.98124,-13.2207 -13.2207,-13.22071 z"
           id="path3231"
           sodipodi:nodetypes="sssss" /><path
           style="color:#000000;fill:#ffffff;fill-opacity:1;fill-rule:evenodd;stroke-linecap:round;stroke-linejoin:round;-inkscape-stroke:none;paint-order:stroke markers fill"
           d="m 615.91797,163.44922 c -7.23946,-1e-5 -13.22265,5.9832 -13.22266,13.22265 0,7.23947 5.9832,13.22071 13.22266,13.22071 7.23945,-1e-5 13.22071,-5.98125 13.2207,-13.22071 0,-7.23944 -5.98125,-13.22265 -13.2207,-13.22265 z"
           id="path3233"
           sodipodi:nodetypes="sssss" /></g></clipPath><radialGradient
       inkscape:collect="always"
       xlink:href="#linearGradient7833"
       id="radialGradient3375"
       cx="7.6401968"
       cy="152.15646"
       fx="7.6401968"
       fy="152.15646"
       r="142.875"
       gradientTransform="matrix(2.2999556,3.8958181,-3.8968138,2.300543,575.35332,-379.8073)"
       gradientUnits="userSpaceOnUse"
       spreadMethod="repeat" /><linearGradient
       inkscape:collect="always"
       xlink:href="#linearGradient7695"
       id="linearGradient7697"
       x1="-60.038765"
       y1="311.65381"
       x2="337.45734"
       y2="311.65381"
       gradientUnits="userSpaceOnUse"
       gradientTransform="matrix(0.79690224,0,0,1.2299446,47.970244,-70.669373)" /><radialGradient
       inkscape:collect="always"
       xlink:href="#linearGradient3247"
       id="radialGradient10747"
       gradientUnits="userSpaceOnUse"
       gradientTransform="matrix(2.2999556,3.8958181,-3.8968138,2.300543,575.35331,-379.80731)"
       cx="7.6401968"
       cy="152.15646"
       fx="7.6401968"
       fy="152.15646"
       r="142.875" /><clipPath
       clipPathUnits="userSpaceOnUse"
       id="clipPath6555"><rect
         style="display:inline;opacity:1;fill:url(#radialGradient6559);fill-opacity:1;fill-rule:evenodd;stroke:none;stroke-width:10.5833;stroke-linecap:round;stroke-linejoin:round;stroke-dasharray:none;stroke-opacity:1;paint-order:stroke markers fill"
         id="rect6557"
         width="285.75"
         height="508"
         x="-1.5695394e-05"
         y="3.88326e-06" /></clipPath><radialGradient
       inkscape:collect="always"
       xlink:href="#linearGradient2584"
       id="radialGradient6559"
       gradientUnits="userSpaceOnUse"
       gradientTransform="matrix(2.2999556,3.8958181,-3.8968138,2.300543,575.35332,-379.80729)"
       cx="7.6401968"
       cy="152.15646"
       fx="7.6401968"
       fy="152.15646"
       r="142.875" /><filter
       inkscape:collect="always"
       style="color-interpolation-filters:sRGB"
       id="filter25767"
       x="-0.10247964"
       y="-0.057644796"
       width="1.2049593"
       height="1.1152896"><feGaussianBlur
         inkscape:collect="always"
         stdDeviation="12.201482"
         id="feGaussianBlur25769" /></filter><radialGradient
       inkscape:collect="always"
       xlink:href="#linearGradient34852"
       id="radialGradient34528"
       gradientUnits="userSpaceOnUse"
       gradientTransform="matrix(2.2999556,3.8958182,-3.896814,2.300543,575.3519,-379.80732)"
       cx="7.6401968"
       cy="152.15646"
       fx="7.6401968"
       fy="152.15646"
       r="142.875"
       spreadMethod="repeat" /></defs><g
     inkscape:label="Layer 1"
     inkscape:groupmode="layer"
     id="layer1"
     transform="translate(339.75405,118.38656)"
     inkscape:export-filename="../../Pictures/linux-wallpapers-mobile/Nobara Wallpaper.png"
     inkscape:export-xdpi="96"
     inkscape:export-ydpi="96"><g
       inkscape:label="Layer 1"
       id="layer1-5"
       inkscape:export-filename="../../Pictures/linux-wallpapers-mobile/SteamOS Wallpaper.png"
       inkscape:export-xdpi="96"
       inkscape:export-ydpi="96"
       transform="translate(-339.75261,-118.38656)"><g
         id="g10739"
         inkscape:label="background"><rect
           style="display:inline;opacity:1;mix-blend-mode:normal;fill:url(#radialGradient34528);fill-opacity:1;fill-rule:evenodd;stroke:none;stroke-width:10.5833;stroke-linecap:round;stroke-linejoin:round;stroke-dasharray:none;stroke-opacity:1;paint-order:stroke markers fill"
           id="rect34526"
           width="285.75"
           height="508.00003"
           x="-0.0014349364"
           y="1.675116e-06" /><path
           style="opacity:1;fill:none;fill-opacity:1;fill-rule:evenodd;stroke:url(#linearGradient7697);stroke-width:1.30972;stroke-linecap:round;stroke-linejoin:round;stroke-dasharray:none;stroke-opacity:1;paint-order:stroke markers fill"
           d="m 0.65233527,508 c 0,0 25.45689873,-176.99288 169.10334473,-238.41173 108.17868,-46.25392 146.60795,-152.29314 146.60795,-152.29314"
           id="path5296"
           sodipodi:nodetypes="csc"
           clip-path="url(#clipPath6555)" /></g><g
         id="g25236"
         inkscape:label="logo"
         transform="matrix(0.03463318,0,0,-0.03463318,85.996252,263.45558)"
         style="fill:#ffffff;fill-opacity:1"><path
           d="m 1638.0658,1896.8838 c -514.5892,0 -936.14221,-400.4085 -976.17607,-909.21811 L 1186.9102,768.60752 c 44.4744,30.73018 98.2521,48.63267 156.0475,48.63267 5.2155,0 10.3606,-0.14149 15.4355,-0.4233 l 233.507,341.55621 v 4.7928 c 0,205.5256 165.7032,372.7794 369.396,372.7794 203.6932,0 369.3964,-167.2538 369.3964,-372.7794 0,-205.52561 -165.7032,-372.84992 -369.3964,-372.84992 -2.8181,0 -5.5677,0.0693 -8.3873,0.14148 L 1619.8815,550.74803 c 0.2021,-4.44037 0.3522,-8.88074 0.3522,-13.25056 0,-154.35565 -124.4009,-279.88415 -277.2763,-279.88415 -134.1979,0 -246.4758,96.70134 -271.8491,224.69672 L 695.58025,638.99118 C 811.87538,224.06344 1189.6591,-80.136979 1638.0658,-80.136979 c 541.0202,0 979.5591,442.627159 979.5591,988.510469 0,545.95381 -438.5389,988.51031 -979.5591,988.51031 z M 1275.7459,396.98398 1155.4332,447.16724 c 21.2854,-44.82661 58.2182,-82.32302 107.203,-102.90378 105.8641,-44.54471 227.9389,6.13193 272.0608,113.05312 21.3558,51.73386 21.497,108.82429 0.3522,160.69902 -21.1444,51.87482 -61.1079,92.33149 -112.3483,113.89898 -50.9584,21.35608 -105.5115,20.58076 -153.4393,2.3261 l 124.3302,-51.87482 c 78.0942,-32.84458 115.0267,-123.34357 82.464,-202.14243 -32.4923,-78.79894 -122.2158,-116.08391 -200.3099,-83.23931 z m 931.7019,766.17492 c 0,136.9466 -110.4453,248.4493 -246.1233,248.4493 -135.7484,0 -246.1936,-111.5027 -246.1936,-248.4493 0,-136.9466 110.4452,-248.37872 246.1936,-248.37872 135.678,0 246.1233,111.43212 246.1233,248.37872 z m -430.6451,0.423 c 0,103.0447 82.8162,186.5659 184.8744,186.5659 102.1284,0 184.9449,-83.5212 184.9449,-186.5659 0,-103.0448 -82.8165,-186.56597 -184.9449,-186.56597 -102.0582,0 -184.8744,83.52117 -184.8744,186.56597 z"
           fill="#1a1918"
           id="path35047"
           style="fill:#ffffff;fill-opacity:1;stroke-width:7.63958" /></g></g></g></svg>
