<?xml version="1.0" encoding="UTF-8" standalone="no"?>
<!-- Created with Inkscape (http://www.inkscape.org/) -->

<svg
   width="1920"
   height="1080"
   viewBox="0 0 507.99998 285.75"
   version="1.1"
   id="svg5"
   xml:space="preserve"
   inkscape:version="1.2.2 (b0a8486541, 2022-12-01)"
   sodipodi:docname="Garuda Wallpaper.svg"
   inkscape:export-filename="../../../Pictures/linux-wallpapers-desktop/Garuda Wallpaper.png"
   inkscape:export-xdpi="96"
   inkscape:export-ydpi="96"
   xmlns:inkscape="http://www.inkscape.org/namespaces/inkscape"
   xmlns:sodipodi="http://sodipodi.sourceforge.net/DTD/sodipodi-0.dtd"
   xmlns:xlink="http://www.w3.org/1999/xlink"
   xmlns="http://www.w3.org/2000/svg"
   xmlns:svg="http://www.w3.org/2000/svg"><sodipodi:namedview
     id="namedview7"
     pagecolor="#ffffff"
     bordercolor="#000000"
     borderopacity="0.25"
     inkscape:showpageshadow="false"
     inkscape:pageopacity="0.0"
     inkscape:pagecheckerboard="true"
     inkscape:deskcolor="#d1d1d1"
     inkscape:document-units="px"
     showgrid="false"
     showborder="false"
     inkscape:zoom="0.43720876"
     inkscape:cx="965.21397"
     inkscape:cy="601.5433"
     inkscape:window-width="1920"
     inkscape:window-height="1011"
     inkscape:window-x="0"
     inkscape:window-y="0"
     inkscape:window-maximized="1"
     inkscape:current-layer="layer1-5" /><defs
     id="defs2"><linearGradient
       inkscape:collect="always"
       id="linearGradient34852"><stop
         style="stop-color:#72008b;stop-opacity:1;"
         offset="0"
         id="stop34846" /><stop
         style="stop-color:#a73535;stop-opacity:1;"
         offset="0.45979753"
         id="stop34848" /><stop
         style="stop-color:#000bac;stop-opacity:1;"
         offset="0.87146288"
         id="stop34850" /></linearGradient><linearGradient
       inkscape:collect="always"
       id="linearGradient7833"><stop
         style="stop-color:#312aff;stop-opacity:1;"
         offset="0"
         id="stop7827" /><stop
         style="stop-color:#c18eff;stop-opacity:1;"
         offset="0.45979753"
         id="stop7829" /><stop
         style="stop-color:#9700b6;stop-opacity:1;"
         offset="0.87146288"
         id="stop7831" /></linearGradient><linearGradient
       inkscape:collect="always"
       id="linearGradient2584"><stop
         style="stop-color:#75b4da;stop-opacity:1;"
         offset="0"
         id="stop2578" /><stop
         style="stop-color:#ebf6ff;stop-opacity:1;"
         offset="0.47431508"
         id="stop2580" /><stop
         style="stop-color:#2123e5;stop-opacity:1;"
         offset="1"
         id="stop2582" /></linearGradient><linearGradient
       inkscape:collect="always"
       id="linearGradient7695"><stop
         style="stop-color:#a001c1;stop-opacity:1;"
         offset="0"
         id="stop7691" /><stop
         style="stop-color:#ff2d35;stop-opacity:1;"
         offset="1"
         id="stop7693" /></linearGradient><linearGradient
       inkscape:collect="always"
       id="linearGradient3247"><stop
         style="stop-color:#ff7e2f;stop-opacity:1;"
         offset="0"
         id="stop3243" /><stop
         style="stop-color:#cb595f;stop-opacity:1;"
         offset="0.47431508"
         id="stop10735" /><stop
         style="stop-color:#7030a0;stop-opacity:1;"
         offset="1"
         id="stop3245" /></linearGradient><inkscape:path-effect
       effect="powerclip"
       id="path-effect3237"
       is_visible="true"
       lpeversion="1"
       inverse="true"
       flatten="false"
       hide_clip="false"
       message="Use fill-rule evenodd on &lt;b&gt;fill and stroke&lt;/b&gt; dialog if no flatten result after convert clip to paths." /><clipPath
       clipPathUnits="userSpaceOnUse"
       id="clipPath3227"><g
         id="g3235"
         style="display:block"><path
           style="color:#000000;fill:#ffffff;fill-opacity:1;fill-rule:evenodd;stroke-linecap:round;stroke-linejoin:round;-inkscape-stroke:none;paint-order:stroke markers fill"
           d="m 650.80273,144.88867 c -7.23946,0 -13.2207,5.9832 -13.2207,13.22266 10e-6,7.23945 5.98125,13.22071 13.2207,13.2207 7.23945,0 13.22266,-5.98125 13.22266,-13.2207 10e-6,-7.23946 -5.9832,-13.22265 -13.22266,-13.22266 z"
           id="path3229"
           sodipodi:nodetypes="sssss" /><path
           style="color:#000000;fill:#ffffff;fill-opacity:1;fill-rule:evenodd;stroke-linecap:round;stroke-linejoin:round;-inkscape-stroke:none;paint-order:stroke markers fill"
           d="m 649.01367,185.5957 c -7.23946,0 -13.22266,5.98124 -13.22265,13.22071 0,7.23945 5.9832,13.22266 13.22265,13.22265 7.23945,0 13.2207,-5.9832 13.2207,-13.22265 10e-6,-7.23946 -5.98124,-13.2207 -13.2207,-13.22071 z"
           id="path3231"
           sodipodi:nodetypes="sssss" /><path
           style="color:#000000;fill:#ffffff;fill-opacity:1;fill-rule:evenodd;stroke-linecap:round;stroke-linejoin:round;-inkscape-stroke:none;paint-order:stroke markers fill"
           d="m 615.91797,163.44922 c -7.23946,-1e-5 -13.22265,5.9832 -13.22266,13.22265 0,7.23947 5.9832,13.22071 13.22266,13.22071 7.23945,-1e-5 13.22071,-5.98125 13.2207,-13.22071 0,-7.23944 -5.98125,-13.22265 -13.2207,-13.22265 z"
           id="path3233"
           sodipodi:nodetypes="sssss" /></g></clipPath><radialGradient
       inkscape:collect="always"
       xlink:href="#linearGradient7833"
       id="radialGradient3375"
       cx="7.6401968"
       cy="152.15646"
       fx="7.6401968"
       fy="152.15646"
       r="142.875"
       gradientTransform="matrix(2.2999556,3.8958181,-3.8968138,2.300543,575.35332,-379.8073)"
       gradientUnits="userSpaceOnUse"
       spreadMethod="repeat" /><linearGradient
       inkscape:collect="always"
       xlink:href="#linearGradient7695"
       id="linearGradient7697"
       x1="-60.038765"
       y1="311.65381"
       x2="337.45734"
       y2="311.65381"
       gradientUnits="userSpaceOnUse"
       gradientTransform="matrix(0.72219189,0,0,1.2605666,43.540248,-84.593655)" /><radialGradient
       inkscape:collect="always"
       xlink:href="#linearGradient3247"
       id="radialGradient10747"
       gradientUnits="userSpaceOnUse"
       gradientTransform="matrix(2.2999556,3.8958181,-3.8968138,2.300543,575.35331,-379.80731)"
       cx="7.6401968"
       cy="152.15646"
       fx="7.6401968"
       fy="152.15646"
       r="142.875" /><radialGradient
       inkscape:collect="always"
       xlink:href="#linearGradient2584"
       id="radialGradient6559"
       gradientUnits="userSpaceOnUse"
       gradientTransform="matrix(2.2999556,3.8958181,-3.8968138,2.300543,575.35332,-379.80729)"
       cx="7.6401968"
       cy="152.15646"
       fx="7.6401968"
       fy="152.15646"
       r="142.875" /><radialGradient
       inkscape:collect="always"
       xlink:href="#linearGradient34852"
       id="radialGradient34528"
       gradientUnits="userSpaceOnUse"
       gradientTransform="matrix(2.2999556,3.8958182,-3.896814,2.300543,575.3519,-379.80732)"
       cx="7.6401968"
       cy="152.15646"
       fx="7.6401968"
       fy="152.15646"
       r="142.875"
       spreadMethod="repeat" /><linearGradient
       inkscape:collect="always"
       xlink:href="#linearGradient7695"
       id="linearGradient2411"
       gradientUnits="userSpaceOnUse"
       gradientTransform="matrix(0.96437972,-0.24828898,0.24828898,0.96437972,-62.20978,25.343112)"
       x1="54.119331"
       y1="231.45634"
       x2="73.555878"
       y2="257.89557" /><linearGradient
       inkscape:collect="always"
       xlink:href="#linearGradient7695"
       id="linearGradient47809"
       x1="48.500019"
       y1="250.70886"
       x2="73.034462"
       y2="250.70886"
       gradientUnits="userSpaceOnUse" /><linearGradient
       inkscape:collect="always"
       xlink:href="#linearGradient7695"
       id="linearGradient47811"
       x1="48.500019"
       y1="253.74202"
       x2="69.693489"
       y2="253.74202"
       gradientUnits="userSpaceOnUse" /><linearGradient
       inkscape:collect="always"
       xlink:href="#linearGradient7695"
       id="linearGradient47813"
       x1="21.237057"
       y1="257.30411"
       x2="48.500019"
       y2="257.30411"
       gradientUnits="userSpaceOnUse" /><linearGradient
       inkscape:collect="always"
       xlink:href="#linearGradient7695"
       id="linearGradient47815"
       x1="48.446144"
       y1="256.81973"
       x2="66.408264"
       y2="256.81973"
       gradientUnits="userSpaceOnUse" /><linearGradient
       inkscape:collect="always"
       xlink:href="#linearGradient7695"
       id="linearGradient47817"
       x1="34.021046"
       y1="259.03259"
       x2="51.493984"
       y2="259.03259"
       gradientUnits="userSpaceOnUse" /><linearGradient
       inkscape:collect="always"
       xlink:href="#linearGradient7695"
       id="linearGradient47819"
       x1="48.500019"
       y1="258.4787"
       x2="61.031273"
       y2="258.4787"
       gradientUnits="userSpaceOnUse" /><linearGradient
       inkscape:collect="always"
       xlink:href="#linearGradient7695"
       id="linearGradient47863"
       x1="64.966644"
       y1="227.61588"
       x2="85.506996"
       y2="227.61588"
       gradientUnits="userSpaceOnUse" /><linearGradient
       inkscape:collect="always"
       xlink:href="#linearGradient7695"
       id="linearGradient47865"
       x1="9.990181"
       y1="232.96907"
       x2="66.222168"
       y2="232.96907"
       gradientUnits="userSpaceOnUse" /><linearGradient
       inkscape:collect="always"
       xlink:href="#linearGradient7695"
       id="linearGradient47867"
       x1="48.562313"
       y1="232.76741"
       x2="85.880043"
       y2="232.76741"
       gradientUnits="userSpaceOnUse" /><linearGradient
       inkscape:collect="always"
       xlink:href="#linearGradient7695"
       id="linearGradient47869"
       x1="9.990181"
       y1="232.98753"
       x2="65.02681"
       y2="232.98753"
       gradientUnits="userSpaceOnUse" /><linearGradient
       inkscape:collect="always"
       xlink:href="#linearGradient7695"
       id="linearGradient47871"
       x1="1.32292"
       y1="243.41129"
       x2="48.500019"
       y2="243.41129"
       gradientUnits="userSpaceOnUse" /><linearGradient
       inkscape:collect="always"
       xlink:href="#linearGradient7695"
       id="linearGradient47873"
       x1="3.9270501"
       y1="246.31294"
       x2="48.500019"
       y2="246.31294"
       gradientUnits="userSpaceOnUse" /><linearGradient
       inkscape:collect="always"
       xlink:href="#linearGradient7695"
       id="linearGradient47875"
       x1="5.6059499"
       y1="250.28142"
       x2="48.500019"
       y2="250.28142"
       gradientUnits="userSpaceOnUse" /><linearGradient
       inkscape:collect="always"
       xlink:href="#linearGradient7695"
       id="linearGradient47877"
       x1="12.645322"
       y1="256.00391"
       x2="48.500019"
       y2="256.00391"
       gradientUnits="userSpaceOnUse" /><linearGradient
       inkscape:collect="always"
       xlink:href="#linearGradient7695"
       id="linearGradient47887"
       x1="48.113373"
       y1="234.85464"
       x2="97.856155"
       y2="234.85464"
       gradientUnits="userSpaceOnUse" /><linearGradient
       inkscape:collect="always"
       xlink:href="#linearGradient7695"
       id="linearGradient47889"
       x1="10.222543"
       y1="227.17123"
       x2="84.128967"
       y2="227.17123"
       gradientUnits="userSpaceOnUse" /><linearGradient
       inkscape:collect="always"
       xlink:href="#linearGradient7695"
       id="linearGradient47891"
       x1="26.802082"
       y1="217.61415"
       x2="73.700966"
       y2="217.61415"
       gradientUnits="userSpaceOnUse" /><linearGradient
       inkscape:collect="always"
       xlink:href="#linearGradient7695"
       id="linearGradient47893"
       x1="85.506996"
       y1="224.63518"
       x2="95.461487"
       y2="224.63518"
       gradientUnits="userSpaceOnUse" /><linearGradient
       inkscape:collect="always"
       xlink:href="#linearGradient7695"
       id="linearGradient47895"
       x1="85.446777"
       y1="226.79593"
       x2="104.51042"
       y2="226.79593"
       gradientUnits="userSpaceOnUse" /><linearGradient
       inkscape:collect="always"
       xlink:href="#linearGradient7695"
       id="linearGradient47897"
       x1="97.057472"
       y1="240.92665"
       x2="104.47186"
       y2="240.92665"
       gradientUnits="userSpaceOnUse" /><linearGradient
       inkscape:collect="always"
       xlink:href="#linearGradient7695"
       id="linearGradient47899"
       x1="68.703217"
       y1="211.96017"
       x2="87.647079"
       y2="211.96017"
       gradientUnits="userSpaceOnUse" /><linearGradient
       inkscape:collect="always"
       xlink:href="#linearGradient7695"
       id="linearGradient47901"
       x1="49.978951"
       y1="208.63692"
       x2="79.255363"
       y2="208.63692"
       gradientUnits="userSpaceOnUse" /><linearGradient
       inkscape:collect="always"
       xlink:href="#linearGradient7695"
       id="linearGradient47903"
       x1="26.802225"
       y1="213.72426"
       x2="69.269127"
       y2="213.72426"
       gradientUnits="userSpaceOnUse" /><linearGradient
       inkscape:collect="always"
       xlink:href="#linearGradient7695"
       id="linearGradient47905"
       x1="69.12561"
       y1="216.63806"
       x2="87.647079"
       y2="216.63806"
       gradientUnits="userSpaceOnUse" /><linearGradient
       inkscape:collect="always"
       xlink:href="#linearGradient7695"
       id="linearGradient47907"
       x1="72.858139"
       y1="224.63518"
       x2="87.647079"
       y2="224.63518"
       gradientUnits="userSpaceOnUse" /><linearGradient
       inkscape:collect="always"
       xlink:href="#linearGradient7695"
       id="linearGradient47923"
       x1="2.0327294"
       y1="244.08333"
       x2="104.07889"
       y2="244.08333"
       gradientUnits="userSpaceOnUse" /><linearGradient
       inkscape:collect="always"
       xlink:href="#linearGradient7695"
       id="linearGradient47925"
       x1="83.738846"
       y1="234.60934"
       x2="104.47186"
       y2="234.60934"
       gradientUnits="userSpaceOnUse" /><linearGradient
       inkscape:collect="always"
       xlink:href="#linearGradient7695"
       id="linearGradient47927"
       x1="54.187126"
       y1="248.18118"
       x2="73.045265"
       y2="248.18118"
       gradientUnits="userSpaceOnUse" /><linearGradient
       inkscape:collect="always"
       xlink:href="#linearGradient7695"
       id="linearGradient47929"
       x1="61.015194"
       y1="248.02217"
       x2="73.072495"
       y2="248.02217"
       gradientUnits="userSpaceOnUse" /><linearGradient
       inkscape:collect="always"
       xlink:href="#linearGradient7695"
       id="linearGradient47931"
       x1="64.994331"
       y1="226.33694"
       x2="85.506996"
       y2="226.33694"
       gradientUnits="userSpaceOnUse" /><clipPath
       clipPathUnits="userSpaceOnUse"
       id="clipPath398"><rect
         style="display:inline;opacity:1;mix-blend-mode:normal;fill:url(#radialGradient402);fill-opacity:1;fill-rule:evenodd;stroke:none;stroke-width:10.5833;stroke-linecap:round;stroke-linejoin:round;stroke-dasharray:none;stroke-opacity:1;paint-order:stroke markers fill"
         id="rect400"
         width="285.75"
         height="508.00006"
         x="-0.0014349364"
         y="1.675116e-06" /></clipPath><radialGradient
       inkscape:collect="always"
       xlink:href="#linearGradient34852"
       id="radialGradient402"
       gradientUnits="userSpaceOnUse"
       gradientTransform="matrix(2.2999556,3.8958182,-3.8968139,2.300543,575.3519,-379.80732)"
       cx="7.6401968"
       cy="152.15646"
       fx="7.6401968"
       fy="152.15646"
       r="142.875"
       spreadMethod="repeat" /></defs><g
     inkscape:label="Layer 1"
     inkscape:groupmode="layer"
     id="layer1"
     transform="translate(339.75405,118.38656)"
     inkscape:export-filename="../../Pictures/linux-wallpapers-mobile/Nobara Wallpaper.png"
     inkscape:export-xdpi="96"
     inkscape:export-ydpi="96"><g
       inkscape:label="Layer 1"
       id="layer1-5"
       inkscape:export-filename="../../Pictures/linux-wallpapers-mobile/SteamOS Wallpaper.png"
       inkscape:export-xdpi="96"
       inkscape:export-ydpi="96"
       transform="translate(-339.75261,-118.38656)"><g
         id="g10739"
         inkscape:label="background"
         transform="matrix(1.777769,0,0,0.56249999,0.00111605,7.3286326e-7)"><rect
           style="display:inline;opacity:1;mix-blend-mode:normal;fill:url(#radialGradient34528);fill-opacity:1;fill-rule:evenodd;stroke:none;stroke-width:10.5833;stroke-linecap:round;stroke-linejoin:round;stroke-dasharray:none;stroke-opacity:1;paint-order:stroke markers fill"
           id="rect34526"
           width="285.75"
           height="508.00003"
           x="-0.0014349364"
           y="1.675116e-06" /><path
           style="opacity:1;fill:none;fill-opacity:1;fill-rule:evenodd;stroke:url(#linearGradient7697);stroke-width:1.26224;stroke-linecap:round;stroke-linejoin:round;stroke-dasharray:none;stroke-opacity:1;paint-order:stroke markers fill"
           d="m 0.65843896,508.48294 c 0,0 23.07029104,-181.3995 153.24975104,-244.34751 98.03682,-47.40551 132.86333,-156.0848 132.86333,-156.0848"
           id="path5296"
           sodipodi:nodetypes="csc"
           clip-path="url(#clipPath398)" /></g><g
         inkscape:label="logo"
         id="layer1-3"
         transform="matrix(0.40362224,0,0,0.40362224,232.64021,31.128366)"><g
           id="g1194"><path
             sodipodi:nodetypes="cssssssscsssssssssssssssssssssssssssssscsccssscsscssccsscsscccssscssccsssscccc"
             id="path2279"
             d="m 48.341992,282.31263 c -6.163408,-2.05291 -14.122286,-4.64259 -14.268132,-4.64259 -0.110184,0 -0.237921,0.23008 -0.442308,0.79668 -0.158065,0.43817 -0.287389,0.8284 -0.287389,0.86716 0,0.0387 -0.05243,0.14237 -0.116439,0.23023 -0.133267,0.18282 0.325977,0.41286 -6.616325,-3.31412 -5.156977,-2.76851 -5.291361,-2.83501 -5.454569,-2.69914 -0.07027,0.0585 -0.668661,0.86453 -1.329804,1.79125 l -1.202088,1.6849 -0.128258,-0.30726 c -0.134107,-0.3213 -2.385113,-6.72225 -4.42409,-12.58035 -0.655365,-1.88287 -1.22909,-3.42341 -1.27496,-3.42341 -0.123116,0 -1.669629,1.07316 -4.3415067,3.01268 -1.302444,0.94545 -2.381487,1.70636 -2.397887,1.69093 -0.01639,-0.0155 0.730859,-1.7403 1.660564,-3.83302 2.9706177,-6.68672 3.1867947,-7.20508 3.0048817,-7.20508 -0.02981,0 -1.4923767,0.73687 -3.2502947,1.63748 -1.757927,0.90061 -3.1962187,1.6154 -3.1962187,1.58844 0,-0.0269 0.5223637,-1.65462 1.1608067,-3.61699 0.638443,-1.96239 1.160817,-3.62319 1.160817,-3.69069 2.1e-5,-0.15181 0.08338,-0.17693 -2.4562837,0.74033 -1.121114,0.40492 -2.069052,0.72505 -2.106502,0.71139 -0.07119,-0.026 0.995129,-1.20161 5.3866757,-5.93906 2.445499,-2.6381 2.7116847,-2.95938 3.7056467,-4.47248 2.560911,-3.8984 4.664206,-7.17962 4.664206,-7.27632 0,-0.0595 -0.09004,-0.0854 -0.208956,-0.06 -0.114921,0.0245 -1.103136,0.24086 -2.196039,0.48082 -1.092904,0.23997 -2.046424,0.42394 -2.118938,0.40883 -0.07252,-0.0152 2.367884,-1.58597 5.423123,-3.49079 11.441102,-7.13311 13.752278,-8.54068 14.370153,-8.75187 0.233731,-0.0799 0.424975,-0.16671 0.424975,-0.19292 0,-0.0262 -0.971611,-0.0173 -2.159135,0.0197 -1.187526,0.0371 -2.13824,0.048 -2.112693,0.0243 0.0546,-0.0507 10.661999,-8.29351 15.09069,-11.72676 3.565757,-2.76426 6.687112,-5.14044 7.306705,-5.56231 0.365271,-0.24872 0.520874,-0.29592 0.975085,-0.2958 0.297258,7e-5 3.340364,0.18821 6.76249,0.41805 15.762215,1.05866 21.373695,1.45778 21.554166,1.53309 0.107276,0.0447 2.061578,2.3969 4.34292,5.22696 l 4.147888,5.14556 3.829247,1.76537 c 2.10612,0.97095 3.835667,1.77172 3.843467,1.77948 0,0 0.30834,0.53375 0.0787,0.25262 l 0.26214,0.29996 c 0.50589,0.57885 8.630127,11.45556 8.669517,11.60674 0.035,0.13398 -1.02218,9.24873 -1.13122,9.75377 -0.0382,0.17711 -5.426227,5.40433 -5.426227,5.87855 -0.0166,-0.0167 0.11358,-2.08158 0.28946,-4.58855 0.17588,-2.50697 0.60602,-5.00034 0.37829,-5.41287 l -0.47186,-0.85474 -0.40282,-0.0541 c -0.44283,-0.0594 -8.435934,-0.56952 -19.022435,-1.21394 -3.754101,-0.22852 -7.17039,-0.44026 -7.591751,-0.47052 l -0.766172,-0.0551 v 0.29027 c 0,0.30549 0.893879,8.13979 2.141006,18.76494 l 0.742972,6.32993 -0.325154,0.47033 c -0.178823,0.25867 -1.051835,1.47617 -1.940005,2.70556 l -1.614862,2.23525 0.235817,0.42368 0.235818,0.42366 -2.059443,2.56524 c -1.132684,1.41087 -2.059413,2.6369 -2.059413,2.7245 0,0.0877 0.19699,0.62495 0.437781,1.19412 l 0.437782,1.03485 -0.307951,0.24225 c -0.169363,0.13324 -1.526049,1.04356 -3.014802,2.02293 l -2.706862,1.78068 0.02393,0.3153 c 0.0131,0.1734 0.151921,0.83287 0.308229,1.46548 0.156318,0.63263 0.269183,1.16531 0.250797,1.18375 -0.03654,0.0367 -3.452564,-0.41795 -7.026769,-0.93504 -1.24561,-0.1802 -2.316812,-0.32764 -2.380478,-0.32764 -0.08905,0 -0.104436,0.27988 -0.06681,1.21101 0.02789,0.68859 0.0132,1.20696 -0.03405,1.20166 -0.04566,-0.005 -1.336684,-0.42694 -2.868969,-0.93731 z"
             style="fill:url(#linearGradient47923);fill-opacity:1;stroke-width:0.0931563" /><path
             sodipodi:nodetypes="cccc"
             d="m 83.738847,231.43197 20.733013,1.45581 -6.618081,4.89893 z"
             style="fill:url(#linearGradient47925);fill-opacity:1;fill-rule:nonzero;stroke:none;stroke-width:0.0187065"
             id="path2281"
             inkscape:connector-curvature="0" /><path
             sodipodi:nodetypes="cccc"
             inkscape:connector-curvature="0"
             id="path2283"
             style="fill:url(#linearGradient47927);fill-opacity:1;fill-rule:nonzero;stroke:none;stroke-width:0.0187065"
             d="m 61.690611,235.37776 11.354657,26.092 -18.858141,-26.57714 z" /><path
             d="m 69.981292,235.23962 3.0912,26.30949 -12.057298,-27.05388 z"
             style="fill:url(#linearGradient47929);fill-opacity:1;fill-rule:nonzero;stroke:none;stroke-width:0.0187065"
             id="path2285"
             inkscape:connector-curvature="0"
             sodipodi:nodetypes="cccc" /><path
             d="m 64.994335,223.24925 20.51266,8.84378 -11.866987,-11.51215 z"
             style="fill:url(#linearGradient47931);fill-opacity:1;fill-rule:nonzero;stroke:none;stroke-width:0.0187065"
             id="path2287"
             inkscape:connector-curvature="0"
             sodipodi:nodetypes="cccc" /><path
             d="M 97.856152,237.76954 85.439391,231.93975 48.113374,234.6415 Z"
             style="fill:url(#linearGradient47887);fill-opacity:1;fill-rule:nonzero;stroke:none;stroke-width:0.0187777"
             id="path2289"
             inkscape:connector-curvature="0"
             sodipodi:nodetypes="cccc" /><path
             sodipodi:nodetypes="cccc"
             d="M 10.222543,235.27979 30.766147,222.54901 84.12897,219.06268 Z"
             style="fill:url(#linearGradient47889);fill-opacity:1;fill-rule:nonzero;stroke:none;stroke-width:0.0187065"
             id="path2291"
             inkscape:connector-curvature="0" /><path
             d="m 69.175497,212.53161 c 0,0 -39.919641,9.59918 -42.373415,10.16508 l 2.044539,-0.29694 -2.020866,0.29539 46.875213,-2.05175 -2.502544,-4.39424 h 5.27e-4 z"
             style="fill:url(#linearGradient47891);fill-opacity:1;fill-rule:nonzero;stroke:none;stroke-width:0.0187065"
             id="path2293" /><path
             d="m 95.461486,220.78101 -9.954491,11.31202 2.140087,-14.9157 z"
             style="fill:url(#linearGradient47893);fill-opacity:1;fill-rule:nonzero;stroke:none;stroke-width:0.0187065"
             id="path2295"
             inkscape:connector-curvature="0" /><path
             sodipodi:nodetypes="cccc"
             d="M 104.51042,232.89367 95.360547,220.69818 85.446776,231.9533 Z"
             style="fill:url(#linearGradient47895);fill-opacity:1;fill-rule:nonzero;stroke:none;stroke-width:0.0187065"
             id="path2297"
             inkscape:connector-curvature="0" /><path
             d="m 97.057474,248.96552 0.796305,-11.17881 6.618081,-4.89893 -1.22756,10.05922 -6.186826,6.01852"
             style="fill:url(#linearGradient47897);fill-opacity:1;fill-rule:nonzero;stroke:none;stroke-width:0.0187065"
             id="path2299"
             inkscape:connector-curvature="0" /><path
             d="m 87.647082,217.17733 -8.443268,-10.4343 -10.500601,5.87812 z"
             style="fill:url(#linearGradient47899);fill-opacity:1;fill-rule:nonzero;stroke:none;stroke-width:0.0187065"
             id="path2301"
             inkscape:connector-curvature="0"
             sodipodi:nodetypes="cccc" /><path
             d="m 49.97895,204.75199 19.159118,7.76984 10.117292,-5.76994 z"
             style="fill:url(#linearGradient47901);fill-opacity:1;fill-rule:nonzero;stroke:none;stroke-width:0.0187065"
             id="path2303"
             inkscape:connector-curvature="0"
             sodipodi:nodetypes="cccc" /><path
             d="m 26.802225,222.69653 23.176725,-17.94454 19.290178,7.82037 z"
             style="fill:url(#linearGradient47903);fill-opacity:1;fill-rule:nonzero;stroke:none;stroke-width:0.0187065"
             id="path2305"
             inkscape:connector-curvature="0"
             sodipodi:nodetypes="cccc" /><path
             sodipodi:nodetypes="cccc"
             d="m 87.647082,217.17733 -14.080951,3.55478 -4.440524,-8.1881 z"
             style="fill:url(#linearGradient47905);fill-opacity:1;fill-rule:nonzero;stroke:none;stroke-width:0.0187065"
             id="path2307"
             inkscape:connector-curvature="0" /><path
             sodipodi:nodetypes="cccc"
             d="m 87.647082,217.17733 -14.788944,3.57718 12.648857,11.33852 z"
             style="fill:url(#linearGradient47907);fill-opacity:1;fill-rule:nonzero;stroke:none;stroke-width:0.0187065"
             id="path2309"
             inkscape:connector-curvature="0" /><path
             d="m 66.108871,230.91584 19.398124,1.17719 -20.540349,-8.9543 z"
             style="fill:url(#linearGradient47863);fill-opacity:1;fill-rule:nonzero;stroke:none;stroke-width:0.0187065"
             id="path2311"
             inkscape:connector-curvature="0"
             sodipodi:nodetypes="cccc" /><path
             sodipodi:nodetypes="cccc"
             d="M 66.222168,230.90768 9.990181,242.83046 65.038751,223.10769 Z"
             style="fill:url(#linearGradient47865);fill-opacity:1;fill-rule:nonzero;stroke:none;stroke-width:0.0187065"
             id="path2313"
             inkscape:connector-curvature="0" /><path
             d="m 48.562314,234.64625 17.749036,-3.75768 19.568694,1.11159 z"
             style="fill:url(#linearGradient47867);fill-opacity:1;fill-rule:nonzero;stroke:none;stroke-width:0.0187065"
             id="path2315"
             inkscape:connector-curvature="0"
             sodipodi:nodetypes="cccc" /><path
             sodipodi:nodetypes="cccc"
             d="m 65.026806,223.1446 -49.279157,10.90506 -5.757468,8.7808 z"
             style="fill:url(#linearGradient47869);fill-opacity:1;fill-rule:nonzero;stroke:none;stroke-width:0.0187065"
             id="path2319"
             inkscape:connector-curvature="0" /><path
             d="M 48.500019,234.6505 9.990181,242.83046 1.32292,252.17208 Z"
             style="fill:url(#linearGradient47871);fill-opacity:1;fill-rule:nonzero;stroke:none;stroke-width:0.0187065"
             id="path2321"
             inkscape:connector-curvature="0" /><path
             d="M 3.92705,257.97538 48.500019,234.6505 6.537907,250.23522 Z"
             style="fill:url(#linearGradient47873);fill-opacity:1;fill-rule:nonzero;stroke:none;stroke-width:0.0187065"
             id="path2323"
             inkscape:connector-curvature="0" /><path
             d="M 5.60595,265.91234 10.781272,254.38861 48.500019,234.6505 Z"
             style="fill:url(#linearGradient47875);fill-opacity:1;fill-rule:nonzero;stroke:none;stroke-width:0.0187065"
             id="path2325"
             inkscape:connector-curvature="0" /><path
             sodipodi:nodetypes="cccc"
             d="M 18.524062,277.35731 12.645322,260.46619 48.500019,234.6505 Z"
             style="fill:url(#linearGradient47877);fill-opacity:1;fill-rule:nonzero;stroke:none;stroke-width:0.0187065"
             id="path2327"
             inkscape:connector-curvature="0" /><path
             d="M 73.034461,261.42578 69.17008,266.76722 48.500019,234.6505 Z"
             style="fill:url(#linearGradient47809);fill-opacity:1;fill-rule:nonzero;stroke:none;stroke-width:0.0187065"
             id="path2329"
             inkscape:connector-curvature="0" /><path
             d="M 65.409524,272.83354 48.500019,234.6505 69.693486,267.5802 Z"
             style="fill:url(#linearGradient47811);fill-opacity:1;fill-rule:nonzero;stroke:none;stroke-width:0.0187065"
             id="path2331"
             inkscape:connector-curvature="0" /><path
             d="M 33.265299,279.9577 21.237057,273.49201 48.500019,234.6505 Z"
             style="fill:url(#linearGradient47813);fill-opacity:1;fill-rule:nonzero;stroke:none;stroke-width:0.0187065"
             id="path2333"
             inkscape:connector-curvature="0" /><path
             d="M 66.408262,275.06385 48.446145,234.50416 60.135989,279.13531 Z"
             style="fill:url(#linearGradient47815);fill-opacity:1;fill-rule:nonzero;stroke:none;stroke-width:0.0187065"
             id="path2335"
             inkscape:connector-curvature="0" /><path
             d="m 48.500019,234.6505 2.993967,48.76415 -17.472942,-5.7049 z"
             style="fill:url(#linearGradient47817);fill-opacity:1;fill-rule:nonzero;stroke:none;stroke-width:0.0187065"
             id="path2337"
             inkscape:connector-curvature="0" /><path
             sodipodi:nodetypes="cccc"
             d="m 48.500019,234.6505 2.832074,46.27865 9.69918,1.37778 z"
             style="fill:url(#linearGradient47819);fill-opacity:1;fill-rule:nonzero;stroke:none;stroke-width:0.0187065"
             id="path2339"
             inkscape:connector-curvature="0" /><path
             d="M 54.611051,235.04937 73.057695,261.48192 48.474062,234.65737 Z"
             style="fill:url(#linearGradient2411);fill-opacity:1;fill-rule:nonzero;stroke:none;stroke-width:0.0187065"
             id="path2347"
             inkscape:connector-curvature="0"
             sodipodi:nodetypes="cccc" /></g><g
           id="g41379"
           inkscape:label="eyes-and-nose"
           transform="translate(1.2902903e-6)"
           sodipodi:insensitive="true"><path
             style="fill:#000000;fill-opacity:1;stroke:none;stroke-width:0.375614px;stroke-linecap:butt;stroke-linejoin:miter;stroke-opacity:1"
             d="m 56.755443,217.22848 c 9.7056,-4.45351 18.334521,9.19849 23.472344,3.65198 -2.239659,3.57968 -7.453759,3.90526 -11.088773,3.91761 0,0 -5.577588,-0.13282 -4.847188,-4.81398 -1.205199,-1.99087 -5.022378,-1.95121 -7.536383,-2.75561 z"
             id="path2341"
             inkscape:connector-curvature="0"
             sodipodi:nodetypes="ccccc" /><path
             style="fill:#ffffff;fill-opacity:1;stroke:none;stroke-width:0.412713;stroke-linecap:round;stroke-miterlimit:4;stroke-dasharray:none;stroke-opacity:1;paint-order:stroke fill markers"
             d="m 65.851932,218.62017 a 2.9547924,2.9547924 0 0 0 -1.228081,2.39306 2.9547924,2.9547924 0 0 0 2.955027,2.95504 2.9547924,2.9547924 0 0 0 2.954292,-2.95504 2.9547924,2.9547924 0 0 0 -0.08803,-0.70573 2.4069938,2.9215925 0 0 1 -2.252216,1.90082 2.4069938,2.9215925 0 0 1 -2.407014,-2.9213 2.4069938,2.9215925 0 0 1 0.06602,-0.66685 z"
             id="path2343"
             inkscape:connector-curvature="0" /><path
             inkscape:connector-curvature="0"
             id="path2345"
             d="m 91.922244,223.72124 c 0,0 -3.359235,0.83979 -2.939326,2.72935 0,0 1.364686,-0.10495 2.939326,-2.72935 z"
             style="fill:#000000;fill-opacity:1;stroke:none;stroke-width:0.209952px;stroke-linecap:butt;stroke-linejoin:miter;stroke-opacity:1" /></g></g></g></g></svg>
