<?xml version="1.0" encoding="UTF-8" standalone="no"?>
<!-- Created with Inkscape (http://www.inkscape.org/) -->

<svg
   width="1920"
   height="1080"
   viewBox="0 0 508 285.75"
   version="1.1"
   id="svg5"
   xml:space="preserve"
   inkscape:version="1.2.2 (b0a8486541, 2022-12-01)"
   sodipodi:docname="Ubuntu Wallpaper.svg"
   inkscape:export-filename="../../../Pictures/linux-wallpapers-desktop/Ubuntu Wallpaper.png"
   inkscape:export-xdpi="96"
   inkscape:export-ydpi="96"
   xmlns:inkscape="http://www.inkscape.org/namespaces/inkscape"
   xmlns:sodipodi="http://sodipodi.sourceforge.net/DTD/sodipodi-0.dtd"
   xmlns:xlink="http://www.w3.org/1999/xlink"
   xmlns="http://www.w3.org/2000/svg"
   xmlns:svg="http://www.w3.org/2000/svg"><sodipodi:namedview
     id="namedview7"
     pagecolor="#ffffff"
     bordercolor="#cccccc"
     borderopacity="1"
     inkscape:showpageshadow="0"
     inkscape:pageopacity="1"
     inkscape:pagecheckerboard="true"
     inkscape:deskcolor="#d1d1d1"
     inkscape:document-units="px"
     showgrid="false"
     inkscape:zoom="0.38440306"
     inkscape:cx="535.89584"
     inkscape:cy="907.9012"
     inkscape:window-width="1920"
     inkscape:window-height="1011"
     inkscape:window-x="0"
     inkscape:window-y="0"
     inkscape:window-maximized="1"
     inkscape:current-layer="layer1" /><defs
     id="defs2"><linearGradient
       inkscape:collect="always"
       id="linearGradient7695"><stop
         style="stop-color:#fe441b;stop-opacity:1;"
         offset="0"
         id="stop7691" /><stop
         style="stop-color:#9a3b8b;stop-opacity:1;"
         offset="1"
         id="stop7693" /></linearGradient><linearGradient
       inkscape:collect="always"
       id="linearGradient3247"><stop
         style="stop-color:#ff7e2f;stop-opacity:1;"
         offset="0"
         id="stop3243" /><stop
         style="stop-color:#cb595f;stop-opacity:1;"
         offset="0.47431508"
         id="stop10735" /><stop
         style="stop-color:#7030a0;stop-opacity:1;"
         offset="1"
         id="stop3245" /></linearGradient><inkscape:path-effect
       effect="powerclip"
       id="path-effect3237"
       is_visible="true"
       lpeversion="1"
       inverse="true"
       flatten="false"
       hide_clip="false"
       message="Use fill-rule evenodd on &lt;b&gt;fill and stroke&lt;/b&gt; dialog if no flatten result after convert clip to paths." /><clipPath
       clipPathUnits="userSpaceOnUse"
       id="clipPath3227"><g
         id="g3235"
         style="display:none"><path
           style="color:#000000;fill:#ffffff;fill-opacity:1;fill-rule:evenodd;stroke-linecap:round;stroke-linejoin:round;-inkscape-stroke:none;paint-order:stroke markers fill"
           d="m 650.80273,144.88867 c -7.23946,0 -13.2207,5.9832 -13.2207,13.22266 10e-6,7.23945 5.98125,13.22071 13.2207,13.2207 7.23945,0 13.22266,-5.98125 13.22266,-13.2207 10e-6,-7.23946 -5.9832,-13.22265 -13.22266,-13.22266 z"
           id="path3229"
           sodipodi:nodetypes="sssss" /><path
           style="color:#000000;fill:#ffffff;fill-opacity:1;fill-rule:evenodd;stroke-linecap:round;stroke-linejoin:round;-inkscape-stroke:none;paint-order:stroke markers fill"
           d="m 649.01367,185.5957 c -7.23946,0 -13.22266,5.98124 -13.22265,13.22071 0,7.23945 5.9832,13.22266 13.22265,13.22265 7.23945,0 13.2207,-5.9832 13.2207,-13.22265 10e-6,-7.23946 -5.98124,-13.2207 -13.2207,-13.22071 z"
           id="path3231"
           sodipodi:nodetypes="sssss" /><path
           style="color:#000000;fill:#ffffff;fill-opacity:1;fill-rule:evenodd;stroke-linecap:round;stroke-linejoin:round;-inkscape-stroke:none;paint-order:stroke markers fill"
           d="m 615.91797,163.44922 c -7.23946,-1e-5 -13.22265,5.9832 -13.22266,13.22265 0,7.23947 5.9832,13.22071 13.22266,13.22071 7.23945,-1e-5 13.22071,-5.98125 13.2207,-13.22071 0,-7.23944 -5.98125,-13.22265 -13.2207,-13.22265 z"
           id="path3233"
           sodipodi:nodetypes="sssss" /></g><path
         id="lpe_path-effect3237"
         class="powerclip"
         d="m 605.97442,145.10287 h 66.59022 v 66.59022 h -66.59022 z m 44.82831,-0.2142 c -7.23946,0 -13.2207,5.9832 -13.2207,13.22266 10e-6,7.23945 5.98125,13.22071 13.2207,13.2207 7.23945,0 13.22266,-5.98125 13.22266,-13.2207 10e-6,-7.23946 -5.9832,-13.22265 -13.22266,-13.22266 z m -1.78906,40.70703 c -7.23946,0 -13.22266,5.98124 -13.22265,13.22071 0,7.23945 5.9832,13.22266 13.22265,13.22265 7.23945,0 13.2207,-5.9832 13.2207,-13.22265 10e-6,-7.23946 -5.98124,-13.2207 -13.2207,-13.22071 z m -33.0957,-22.14648 c -7.23946,-1e-5 -13.22265,5.9832 -13.22266,13.22265 0,7.23947 5.9832,13.22071 13.22266,13.22071 7.23945,-1e-5 13.22071,-5.98125 13.2207,-13.22071 0,-7.23944 -5.98125,-13.22265 -13.2207,-13.22265 z" /></clipPath><radialGradient
       inkscape:collect="always"
       xlink:href="#linearGradient3247"
       id="radialGradient3375"
       cx="7.6401968"
       cy="152.15646"
       fx="7.6401968"
       fy="152.15646"
       r="142.875"
       gradientTransform="matrix(2.2999556,3.8958181,-3.8968138,2.300543,575.35332,-379.8073)"
       gradientUnits="userSpaceOnUse" /><linearGradient
       inkscape:collect="always"
       xlink:href="#linearGradient7695"
       id="linearGradient7697"
       x1="-60.038765"
       y1="311.65381"
       x2="337.45734"
       y2="311.65381"
       gradientUnits="userSpaceOnUse"
       gradientTransform="matrix(0.72184677,0,0,1.260573,43.492289,-83.838158)" /><radialGradient
       inkscape:collect="always"
       xlink:href="#linearGradient3247"
       id="radialGradient10747"
       gradientUnits="userSpaceOnUse"
       gradientTransform="matrix(2.2999556,3.8958181,-3.8968138,2.300543,575.35331,-379.80731)"
       cx="7.6401968"
       cy="152.15646"
       fx="7.6401968"
       fy="152.15646"
       r="142.875" /><clipPath
       clipPathUnits="userSpaceOnUse"
       id="clipPath317"><rect
         style="opacity:1;fill:url(#radialGradient321);fill-opacity:1;fill-rule:evenodd;stroke:none;stroke-width:10.5833;stroke-linecap:round;stroke-linejoin:round;stroke-dasharray:none;stroke-opacity:1;paint-order:stroke markers fill"
         id="rect319"
         width="285.75"
         height="508"
         x="0"
         y="0" /></clipPath><radialGradient
       inkscape:collect="always"
       xlink:href="#linearGradient3247"
       id="radialGradient321"
       gradientUnits="userSpaceOnUse"
       gradientTransform="matrix(2.2999556,3.8958181,-3.8968138,2.300543,575.35332,-379.80731)"
       cx="7.6401968"
       cy="152.15646"
       fx="7.6401968"
       fy="152.15646"
       r="142.875" /></defs><g
     inkscape:label="Layer 1"
     inkscape:groupmode="layer"
     id="layer1"
     inkscape:export-filename="../../Pictures/linux-wallpapers-mobile/Ubuntu Wallpaper.png"
     inkscape:export-xdpi="96"
     inkscape:export-ydpi="96"><g
       id="g10739"
       inkscape:label="background"
       transform="scale(1.7777778,0.5625)"><rect
         style="opacity:1;fill:url(#radialGradient3375);fill-opacity:1;fill-rule:evenodd;stroke:none;stroke-width:10.5833;stroke-linecap:round;stroke-linejoin:round;stroke-dasharray:none;stroke-opacity:1;paint-order:stroke markers fill"
         id="rect3241"
         width="285.75"
         height="508"
         x="0"
         y="0" /><path
         style="opacity:1;fill:none;fill-opacity:1;fill-rule:evenodd;stroke:url(#linearGradient7697);stroke-width:1.26195;stroke-linecap:round;stroke-linejoin:round;stroke-dasharray:none;stroke-opacity:1;paint-order:stroke markers fill"
         d="m 0.63097228,509.24145 c 0,0 23.05926472,-181.40043 153.17650772,-244.34875 97.98998,-47.40575 132.79983,-156.0856 132.79983,-156.0856"
         id="path5296"
         sodipodi:nodetypes="csc"
         clip-path="url(#clipPath317)" /></g><g
       id="g2843"
       transform="matrix(0.56052021,0,0,0.56052021,-103.48648,31.751801)"
       inkscape:label="logo"><path
         id="path2635"
         style="opacity:1;fill:none;fill-rule:evenodd;stroke:#ffffff;stroke-width:8.455;stroke-linecap:round;stroke-linejoin:round;paint-order:stroke markers fill"
         d="m 663.33714,178.39798 a 24.067612,24.067612 0 0 1 -24.06761,24.06761 24.067612,24.067612 0 0 1 -24.06761,-24.06761 24.067612,24.067612 0 0 1 24.06761,-24.06761 24.067612,24.067612 0 0 1 24.06761,24.06761 z"
         clip-path="url(#clipPath3227)"
         inkscape:path-effect="#path-effect3237"
         inkscape:original-d="m 663.33714,178.39798 a 24.067612,24.067612 0 0 1 -24.06761,24.06761 24.067612,24.067612 0 0 1 -24.06761,-24.06761 24.067612,24.067612 0 0 1 24.06761,-24.06761 24.067612,24.067612 0 0 1 24.06761,24.06761 z" /><path
         style="color:#000000;fill:#ffffff;fill-rule:evenodd;stroke-width:10.5833;stroke-linecap:round;stroke-linejoin:round;-inkscape-stroke:none;paint-order:stroke markers fill"
         d="m 623.84795,176.67181 a 7.9300442,7.9300442 0 0 1 -7.93004,7.93005 7.9300442,7.9300442 0 0 1 -7.93005,-7.93005 7.9300442,7.9300442 0 0 1 7.93005,-7.93004 7.9300442,7.9300442 0 0 1 7.93004,7.93004 z"
         id="path3151" /><path
         style="color:#000000;fill:#ffffff;fill-rule:evenodd;stroke-width:10.5833;stroke-linecap:round;stroke-linejoin:round;-inkscape-stroke:none;paint-order:stroke markers fill"
         d="m 656.94347,198.81664 a 7.9300442,7.9300442 0 0 1 -7.93004,7.93004 7.9300442,7.9300442 0 0 1 -7.93005,-7.93004 7.9300442,7.9300442 0 0 1 7.93005,-7.93005 7.9300442,7.9300442 0 0 1 7.93004,7.93005 z"
         id="path3157" /><path
         style="color:#000000;fill:#ffffff;fill-rule:evenodd;stroke-width:10.5833;stroke-linecap:round;stroke-linejoin:round;-inkscape-stroke:none;paint-order:stroke markers fill"
         d="m 658.73363,158.11095 a 7.9300442,7.9300442 0 0 1 -7.93004,7.93004 7.9300442,7.9300442 0 0 1 -7.93005,-7.93004 7.9300442,7.9300442 0 0 1 7.93005,-7.93005 7.9300442,7.9300442 0 0 1 7.93004,7.93005 z"
         id="path3106" /></g></g></svg>
